<?xml version="1.0" standalone="yes"?>
<svg xmlns="http://www.w3.org/2000/svg" width="400" height="400">
<path style="fill:#fefffe; stroke:none;" d="M0 0L0 400L400 400L400 0L0 0z"/>
<path style="fill:#89aec6; stroke:none;" d="M178 21L178 38L179 38L179 22L191 22L191 38L192 38L192 21L178 21M204 21L206 38L205 22L222 22L222 38L223 38L223 21L204 21z"/>
<path style="fill:#054975; stroke:none;" d="M179 22L179 38L191 38L191 22L179 22M205 22C205 37.1906 207.088 38 222 38L222 22L205 22M166 52L166 73L191 73L189.973 53.7454L166 52z"/>
<path style="fill:#89aec6; stroke:none;" d="M168 52L168 53L174 53L168 52M175 52L176 53L175 52M178 52L178 53L183 53L178 52M184 52L185 53L184 52M189 52L189 53L191 73L166 73L166 74L192 74L192 52L189 52M204 52L205.028 72.3966L214 74L240 74L240 73L205 73L204 52z"/>
<path style="fill:#054975; stroke:none;" d="M205 52L205 73L240 73L240 52L205 52z"/>
<path style="fill:#89aec6; stroke:none;" d="M240 53L240 72L241 72L240 53M112 87L112 88L191 88L191 109L192 109L192 87L112 87M205 87L205 88L284 88L259 87L205 87z"/>
<path style="fill:#054975; stroke:none;" d="M112 88L113.514 107.316L134 109L191 109L191 88L112 88M205 88L206.603 107.821L223 109L265 109L282.566 107.741L284 88L205 88z"/>
<path style="fill:#89aec6; stroke:none;" d="M112 107L112 109L114 109L112 107M115 108L116 109L115 108M119 108L120 109L119 108M185 108L186 109L185 108M205.667 108.333L206.333 108.667L205.667 108.333M280 108L281 109L280 108M282.667 108.333L283.333 108.667L282.667 108.333M138 125L137 144L138 144L138 125z"/>
<path style="fill:#054975; stroke:none;" d="M138 146L191 146L190.012 126.796L178.996 125.003L150 125L139.028 126.603L138 146z"/>
<path style="fill:#89aec6; stroke:none;" d="M185 125L186 126L185 125M187 125L188 126L187 125M189 125L189 126L191 146L138 146L138 147L192 147L192 125L189 125M205 125L206 126L205 125z"/>
<path style="fill:#054975; stroke:none;" d="M206 125L205 146C220.071 146 241.445 149.959 255.852 145.682C260.811 144.21 260.565 128.77 256.682 126.179C253.032 123.743 246.18 125 242 125C230.093 125 217.864 125.816 206 125z"/>
<path style="fill:#89aec6; stroke:none;" d="M207 125L208 126L207 125M256 125L256 126L259 127L256 125M137 145L138 146L137 145M258 145C242.458 149.594 221.223 146 205 146L205 147L246 147L258 145M92 184L93 184L93 166L191 166L191 187C192.594 183.202 194.014 168.893 190.397 166.028C186.275 162.763 174.088 165 169 165L114 165C109.103 165 97.5825 162.876 93.6034 166.028C90.0502 168.842 92 179.866 92 184M204 187L205 187L205 166L305 166L282 165L230 165L205.603 166.028L204 187z"/>
<path style="fill:#054975; stroke:none;" d="M93 166L93 187L191 187L191 166L93 166M205 166L205 187L305 187L305 166L205 166z"/>
<path style="fill:#89aec6; stroke:none;" d="M92.3333 185.667L92.6667 186.333L92.3333 185.667M204 224L205 224L205 203L343 203C334.404 199.393 320.322 202 311 202L238 202C230.839 202 211.266 198.543 205.603 203.028C201.734 206.093 204 219.426 204 224z"/>
<path style="fill:#054975; stroke:none;" d="M55 203L55 224L191 224L191 203L55 203z"/>
<path style="fill:#89aec6; stroke:none;" d="M191 203L191 224L192 224L191 203z"/>
<path style="fill:#054975; stroke:none;" d="M205 203L205 224L344 224L344 203L205 203z"/>
<path style="fill:#89aec6; stroke:none;" d="M343.333 204.667L343.667 205.333L343.333 204.667M343 207L344 208L343 207M56 224L56 225L190 225C179.496 220.592 161.42 224 150 224L56 224M206 224L206 225L342 225C331.258 220.493 312.682 224 301 224L206 224M103 239L103 240L190 240L163 239L103 239M206 239L206 240L290 240L264 239L206 239M101 240L101 261L102 261L101 240z"/>
<path style="fill:#054975; stroke:none;" d="M102 240L102 261L191 261L191 240L102 240z"/>
<path style="fill:#89aec6; stroke:none;" d="M191 240L191 261L192 261L191 240M204 240L204 261L205 261L204 240z"/>
<path style="fill:#054975; stroke:none;" d="M205 240L205 261L291 261L291 240L205 240z"/>
<path style="fill:#89aec6; stroke:none;" d="M291 240L291 261L292 261L291 240M84 277L84 299L192 299C192 293.439 194.354 280.804 190 277L191 298L85 298C85 292.324 82.7539 281.401 88 278L84 277z"/>
<path style="fill:#054975; stroke:none;" d="M85 278L85 298L191 298L190 277C155.619 280.288 119.047 271.679 85 278z"/>
<path style="fill:#89aec6; stroke:none;" d="M185 277L186 278L185 277M187 277L188 278L187 277z"/>
<path style="fill:#054975; stroke:none;" d="M204 277L204 298L315 298L315 277L204 277z"/>
<path style="fill:#89aec6; stroke:none;" d="M204 298L204 299L315 299L281 298L204 298M115 317C138.14 311.491 167.202 316 191 316L190 337C194.354 333.196 192 320.561 192 315L135 315C129.783 315 118.606 312.873 115 317M204 315L204 316L282 316L258 315L204 315z"/>
<path style="fill:#054975; stroke:none;" d="M116 337L190 337L191 316L137 316C132.075 316 120.653 313.886 116.628 317.013C112.728 320.043 115.03 332.924 116 337z"/>
<path style="fill:#d9131e; stroke:none;" d="M204 316L205.603 335.972L221 337L264 337L280.397 335.972L282 316L204 316z"/>
<path style="fill:#89aec6; stroke:none;" d="M115 320L116 321L115 320M115.333 335.667L115.667 336.333L115.333 335.667M119 336L120 337L119 336M185 336L186 337L185 336M188 336L189 337L188 336M204 336L205 337L204 336M281 336L282 337L281 336M124 375L125 375L125 354L191 354L191 375C192.594 371.202 194.014 356.893 190.397 354.028C187.779 351.954 182.122 353 179 353L150 353C144.343 353 130.15 350.427 125.603 354.028C121.734 357.093 124 370.426 124 375z"/>
<path style="fill:#054975; stroke:none;" d="M125 354L125 375L191 375L191 354L125 354z"/>
<path style="fill:#f5d20b; stroke:none;" d="M204 354L204 375L271 375L271 354L204 354z"/>
</svg>
