<?xml version="1.0" standalone="no"?>
<!DOCTYPE svg PUBLIC "-//W3C//DTD SVG 20010904//EN"
 "http://www.w3.org/TR/2001/REC-SVG-20010904/DTD/svg10.dtd">
<svg version="1.0" xmlns="http://www.w3.org/2000/svg"
 width="400.000000pt" height="400.000000pt" viewBox="0 0 400.000000 400.000000"
 preserveAspectRatio="xMidYMid meet">

<g transform="translate(0.000000,400.000000) scale(0.100000,-0.100000)"
fill="#000000" stroke="none">
<path d="M1790 3700 l0 -80 60 0 60 0 0 80 0 80 -60 0 -60 0 0 -80z"/>
<path d="M2050 3700 l0 -80 85 0 85 0 0 80 0 80 -85 0 -85 0 0 -80z"/>
<path d="M1660 3375 l0 -105 125 0 125 0 0 105 0 105 -125 0 -125 0 0 -105z"/>
<path d="M2050 3375 l0 -105 175 0 175 0 0 105 0 105 -175 0 -175 0 0 -105z"/>
<path d="M1122 3018 l3 -103 393 -3 392 -2 0 105 0 105 -395 0 -396 0 3 -102z"/>
<path d="M2050 3015 l0 -105 395 0 395 0 0 105 0 105 -395 0 -395 0 0 -105z"/>
<path d="M1380 2645 l0 -105 265 0 265 0 0 105 0 105 -265 0 -265 0 0 -105z"/>
<path d="M2050 2645 l0 -105 270 0 271 0 -3 103 -3 102 -267 3 -268 2 0 -105z"/>
<path d="M930 2235 l0 -105 490 0 490 0 0 105 0 105 -490 0 -490 0 0 -105z"/>
<path d="M2050 2235 l0 -105 500 0 500 0 0 105 0 105 -500 0 -500 0 0 -105z"/>
<path d="M550 1865 l0 -105 680 0 680 0 0 105 0 105 -680 0 -680 0 0 -105z"/>
<path d="M2050 1865 l0 -105 695 0 695 0 0 105 0 105 -695 0 -695 0 0 -105z"/>
<path d="M1020 1495 l0 -105 445 0 445 0 0 105 0 105 -445 0 -445 0 0 -105z"/>
<path d="M2050 1495 l0 -105 430 0 430 0 0 105 0 105 -430 0 -430 0 0 -105z"/>
<path d="M850 1125 l0 -105 530 0 530 0 0 105 0 105 -530 0 -530 0 0 -105z"/>
<path d="M2040 1120 l0 -109 555 0 555 -1 0 110 0 110 -555 0 -555 0 0 -110z"/>
<path d="M1152 738 l3 -103 378 -3 377 -2 0 105 0 105 -380 0 -381 0 3 -102z"/>
<path d="M2040 735 l0 -105 390 0 390 0 0 105 0 105 -390 0 -390 0 0 -105z"/>
<path d="M1250 355 l0 -105 330 0 330 0 0 105 0 105 -330 0 -330 0 0 -105z"/>
</g>
</svg>
