<?xml version="1.0" standalone="no"?>
<!DOCTYPE svg PUBLIC "-//W3C//DTD SVG 20010904//EN"
 "http://www.w3.org/TR/2001/REC-SVG-20010904/DTD/svg10.dtd">
<svg version="1.0" xmlns="http://www.w3.org/2000/svg"
 width="300.000000pt" height="301.000000pt" viewBox="0 0 300.000000 301.000000"
 preserveAspectRatio="xMidYMid meet">
<metadata>
Created by potrace 1.10, written by Peter Selinger 2001-2011
</metadata>
<g transform="translate(0.000000,301.000000) scale(0.100000,-0.100000)"
fill="#000000" stroke="none">
<path d="M1560 2950 c-63 -8 -169 -35 -205 -52 -19 -9 -34 -7 -74 11 -93 40
-215 24 -341 -45 -67 -36 -89 -62 -109 -130 -16 -55 -20 -60 -83 -98 -114 -70
-134 -96 -149 -194 -6 -43 -16 -62 -50 -99 l-42 -45 6 -64 c4 -36 12 -91 18
-123 12 -58 12 -59 -19 -106 -39 -58 -42 -119 -12 -190 25 -59 25 -76 -2 -128
-19 -35 -23 -58 -23 -138 0 -89 2 -98 28 -132 37 -49 75 -67 139 -67 40 0 66
8 107 30 30 17 60 30 67 30 11 0 54 -58 54 -72 0 -3 -35 -33 -78 -66 -42 -33
-97 -81 -121 -107 -39 -42 -43 -51 -38 -85 3 -21 30 -80 60 -132 88 -151 98
-170 93 -183 -4 -11 -90 -56 -206 -108 -376 -169 -431 -199 -519 -288 l-61
-61 0 -149 0 -149 1500 0 1500 0 0 194 0 194 -62 40 c-89 58 -308 166 -520
257 -48 20 -92 43 -98 50 -12 14 -6 30 80 215 69 149 78 185 55 229 -16 32
-105 96 -204 146 -28 14 -51 31 -51 39 0 7 10 26 22 42 12 16 23 30 24 32 1 1
36 -7 79 -19 99 -27 137 -18 190 43 47 56 69 130 59 206 -9 79 -19 101 -66
149 -44 45 -45 47 -15 151 37 127 -30 404 -102 427 -19 6 -20 12 -15 83 5 64
2 87 -15 133 -26 68 -78 130 -137 165 -39 23 -53 26 -101 21 -53 -6 -57 -5
-88 29 -35 37 -72 44 -120 22 -25 -11 -29 -9 -68 35 -23 26 -55 51 -70 57 -32
11 -133 11 -217 0z m-304 -196 c69 -36 123 -45 194 -29 33 7 80 -14 123 -53
27 -26 36 -76 21 -116 -11 -29 -40 -18 -58 22 -23 51 -103 99 -168 101 -41 1
-35 -24 12 -54 41 -26 51 -49 26 -58 -7 -3 -24 1 -37 9 -98 56 -169 73 -220
51 -39 -17 -104 -82 -114 -114 -5 -20 -13 -23 -53 -23 -52 0 -92 -28 -92 -65
0 -36 -21 -85 -40 -95 -25 -14 -36 -13 -54 5 -12 12 -13 22 -4 45 23 67 179
208 256 231 51 15 97 53 89 74 -5 12 -18 15 -57 14 -27 -2 -53 0 -56 4 -17 16
50 63 111 78 48 11 50 11 121 -27z m717 -10 c4 -4 -16 -31 -42 -60 -55 -60
-93 -141 -72 -153 7 -4 35 -2 64 6 65 17 89 16 131 -1 46 -19 76 -51 76 -81 0
-26 -18 -33 -37 -14 -19 19 -85 13 -128 -10 -54 -29 -89 -27 -114 5 -12 15
-21 34 -21 44 0 9 -9 25 -20 35 -43 39 -41 113 4 164 36 40 141 83 159 65z
m-491 -256 c45 -18 70 -21 166 -19 109 2 115 1 148 -24 61 -47 74 -92 59 -210
-7 -59 -6 -61 36 -125 33 -50 43 -75 44 -107 0 -58 -15 -71 -60 -50 -82 39
-160 29 -258 -33 -64 -41 -76 -84 -53 -198 13 -59 16 -104 11 -155 -4 -41 -2
-92 4 -117 9 -38 8 -49 -8 -70 -34 -47 -83 -36 -95 20 -7 40 -29 47 -62 21
-19 -15 -31 -18 -38 -11 -16 16 -36 12 -36 -8 0 -10 11 -29 24 -41 22 -21 28
-22 62 -11 36 12 38 12 64 -20 24 -29 29 -31 50 -20 14 7 40 10 65 6 41 -5 45
-3 89 44 47 50 50 65 19 102 -8 9 -19 49 -24 89 -5 40 -12 82 -15 92 -4 14 2
26 22 42 l28 22 -27 18 c-32 21 -34 36 -7 60 25 23 46 14 53 -23 4 -20 15 -33
37 -42 28 -11 34 -11 58 7 15 11 28 32 30 47 3 21 8 27 25 24 51 -7 9 -99 -51
-113 -25 -5 -28 -10 -28 -45 1 -49 8 -56 46 -40 41 17 80 65 80 99 0 15 6 36
14 46 32 45 67 -40 46 -111 -6 -22 -15 -84 -19 -140 -9 -109 -26 -158 -85
-247 -69 -104 -104 -127 -140 -91 -9 8 -16 26 -16 40 0 30 -24 41 -55 24 -20
-11 -30 -10 -66 8 -44 22 -62 19 -89 -12 -18 -22 -38 -20 -72 9 -36 30 -38 30
-72 4 -23 -18 -29 -19 -61 -7 -31 10 -37 10 -45 -2 -19 -30 -12 -42 21 -35 22
5 36 2 49 -10 14 -13 26 -15 52 -9 18 5 58 9 88 10 30 1 69 5 86 9 61 14 97
-34 57 -77 -18 -20 -84 -25 -128 -8 -29 11 -105 -3 -105 -20 0 -18 28 -25 111
-25 71 0 91 -3 108 -19 29 -27 29 -86 -1 -113 -40 -36 -65 -43 -153 -43 -112
0 -137 13 -297 152 -36 32 -69 58 -72 58 -9 0 5 -30 47 -103 64 -111 225 -227
317 -227 85 0 102 -22 66 -84 -32 -54 -117 -148 -149 -165 -23 -12 -30 -11
-81 19 -105 59 -208 177 -268 306 -36 77 -35 121 6 246 25 77 25 78 8 110 -24
43 -65 196 -58 215 11 28 -6 35 -30 12 l-24 -23 -28 21 c-24 18 -27 28 -30 83
-3 61 -2 65 27 88 l31 23 0 186 0 185 31 71 c24 54 33 93 39 162 8 101 23 145
69 198 58 65 140 91 308 96 33 0 71 -7 105 -21z m656 -146 c57 -41 105 -196
64 -210 -17 -5 -68 51 -97 107 -13 25 -42 64 -64 85 -30 29 -38 43 -30 52 13
16 83 -3 127 -34z m108 -346 c38 -38 37 -62 -1 -72 -36 -9 -57 -39 -62 -87 -5
-40 -2 -45 31 -75 50 -43 85 -42 136 4 25 22 46 34 55 30 21 -8 47 -73 40 -97
-10 -29 -64 -53 -121 -52 -112 1 -225 120 -224 237 1 63 56 146 98 146 8 0 29
-15 48 -34z m-359 -95 c17 -11 34 -29 38 -42 9 -29 -14 -43 -37 -23 -10 10
-22 13 -30 8 -7 -5 -35 -9 -63 -10 -27 -1 -61 -3 -74 -5 -40 -6 -34 16 15 54
55 43 101 48 151 18z m-69 -105 c4 -21 -14 -37 -35 -29 -14 5 -18 35 -6 47 12
12 38 1 41 -18z m-1184 -161 c18 -42 44 -46 82 -10 31 29 37 30 53 11 8 -10 4
-22 -18 -52 -41 -56 -64 -74 -104 -81 -33 -5 -38 -2 -57 28 -16 26 -20 43 -15
74 11 71 37 84 59 30z m1034 -187 c18 -18 14 -53 -9 -74 -17 -15 -22 -16 -29
-4 -5 8 -5 22 1 32 6 10 7 23 4 28 -7 11 2 30 14 30 4 0 12 -5 19 -12z m398
-475 c20 -119 17 -149 -17 -218 -44 -89 -109 -159 -192 -205 -96 -53 -125 -53
-180 3 -45 46 -103 156 -94 180 3 8 23 17 46 21 56 9 176 66 240 114 53 41
121 113 121 129 0 4 9 23 21 42 27 45 39 31 55 -66z m-968 -310 c64 -85 113
-133 177 -170 83 -48 136 -148 94 -176 -24 -15 -100 16 -162 67 -27 22 -67 69
-87 104 -62 103 -106 242 -76 242 2 0 27 -30 54 -67z m-133 -105 c52 -79 112
-168 134 -198 48 -66 50 -80 13 -80 -24 0 -36 12 -79 73 -56 80 -120 184 -165
265 -28 50 -31 82 -9 82 6 0 53 -64 106 -142z m1113 42 c-5 -71 -65 -179 -144
-257 -65 -65 -100 -70 -145 -22 -46 49 -40 62 46 94 64 24 149 108 193 193 19
35 38 60 44 56 6 -4 9 -30 6 -64z m-477 -17 c12 -32 7 -69 -17 -119 -13 -28
-22 -34 -48 -34 -36 -1 -66 -20 -66 -43 0 -19 21 -27 75 -27 42 0 44 1 57 42
24 72 68 77 95 11 11 -27 10 -34 -7 -56 -42 -53 -185 -90 -224 -58 -25 21 -54
82 -62 128 -4 30 -1 44 14 62 18 23 21 24 65 12 25 -7 50 -10 56 -6 6 3 11 28
11 54 0 26 3 51 7 54 14 15 34 6 44 -20z"/>
<path d="M1160 1971 c-19 -4 -53 -16 -75 -27 -87 -42 -118 -184 -40 -184 14 0
30 -13 46 -37 27 -41 37 -47 59 -33 13 8 12 12 -7 25 -28 20 -30 65 -5 88 22
20 32 13 32 -24 0 -31 40 -69 72 -69 30 0 68 45 68 80 0 24 4 31 16 28 32 -6
41 -35 21 -70 -22 -39 -14 -47 24 -25 17 9 35 17 40 17 15 0 10 -33 -11 -73
-23 -42 -20 -64 12 -110 31 -44 40 -24 33 72 -5 55 -3 101 4 129 9 32 9 52 1
78 -12 35 -69 89 -126 117 -38 19 -117 28 -164 18z m73 -35 c47 -17 77 -43 77
-68 0 -19 -25 -25 -35 -8 -10 16 -23 12 -30 -10 -5 -16 -15 -20 -50 -20 -24 0
-45 5 -47 12 -3 7 -15 3 -35 -12 -37 -27 -63 -21 -63 15 0 34 48 85 90 95 48
11 50 11 93 -4z m22 -141 c0 -13 -8 -21 -22 -23 -17 -3 -23 2 -23 16 0 10 3
22 7 26 13 13 38 1 38 -19z"/>
</g>
</svg>
