<?xml version="1.0" standalone="no"?>
<!DOCTYPE svg PUBLIC "-//W3C//DTD SVG 20010904//EN"
 "http://www.w3.org/TR/2001/REC-SVG-20010904/DTD/svg10.dtd">
<svg version="1.0" xmlns="http://www.w3.org/2000/svg"
 width="200.000000pt" height="200.000000pt" viewBox="0 0 200.000000 200.000000"
 preserveAspectRatio="xMidYMid meet">
<metadata>
Created by potrace 1.10, written by Peter Selinger 2001-2011
</metadata>
<g transform="translate(0.000000,200.000000) scale(0.100000,-0.100000)"
fill="#000000" stroke="none">
<path d="M857 1856 c-54 -20 -67 -34 -67 -73 0 -33 1 -34 22 -19 25 18 133 22
143 6 4 -6 -17 -10 -57 -10 l-63 0 28 -23 28 -22 -48 -135 c-49 -138 -64 -158
-98 -130 -12 10 -15 41 -15 144 0 150 -10 197 -47 226 -52 40 -142 16 -268
-74 -74 -54 -207 -192 -260 -272 -64 -97 -149 -280 -125 -272 5 2 125 93 266
203 142 110 261 201 265 203 4 2 9 -61 11 -140 3 -132 6 -147 30 -194 15 -28
43 -65 63 -83 l37 -32 -51 -192 c-51 -194 -124 -512 -136 -599 -7 -46 -9 -48
-71 -79 -66 -33 -78 -47 -63 -70 5 -8 9 -9 9 -3 0 10 62 44 81 44 5 0 -1 -15
-15 -33 -30 -39 -33 -62 -10 -71 8 -3 12 -2 9 4 -6 9 54 84 62 76 2 -2 -1 -23
-8 -46 -11 -35 -10 -43 2 -51 19 -12 32 -11 24 1 -10 17 15 79 38 95 30 21
107 20 107 -1 0 -8 4 -12 10 -9 18 11 10 44 -14 61 l-25 16 86 69 c48 38 112
92 143 121 30 29 70 66 87 82 l32 29 98 -89 c54 -49 131 -116 171 -148 39 -32
72 -61 72 -65 0 -3 -9 -12 -20 -19 -21 -13 -27 -47 -10 -57 6 -3 10 1 10 9 0
12 10 16 39 16 22 0 47 -3 56 -6 20 -8 58 -81 51 -100 -6 -16 3 -18 23 -5 12
8 13 16 2 51 -7 23 -10 44 -8 46 7 8 67 -68 61 -78 -3 -4 2 -5 10 -2 23 9 20
32 -10 71 -14 18 -20 33 -14 33 16 0 74 -31 82 -44 4 -6 8 0 8 15 0 21 -10 31
-63 57 l-63 32 -28 147 c-16 82 -59 271 -96 422 l-68 274 32 28 c18 15 45 52
62 81 28 51 29 60 32 196 2 79 7 142 11 140 4 -2 123 -93 265 -203 141 -110
261 -201 266 -203 11 -4 -6 47 -43 128 -87 191 -290 406 -458 485 -97 45 -167
25 -189 -53 -5 -20 -10 -96 -10 -168 0 -106 -3 -134 -15 -144 -10 -8 -19 -9
-24 -4 -5 5 -27 72 -50 149 -49 162 -80 220 -135 249 -49 25 -138 31 -189 12z
m89 -17 c3 -6 0 -17 -7 -25 -18 -17 -44 -2 -36 20 7 18 33 21 43 5z m14 -354
c0 -21 -27 -30 -45 -15 -23 19 -18 30 15 30 20 0 30 -5 30 -15z m140 6 c0 -15
-29 -33 -45 -27 -28 10 -17 36 15 36 17 0 30 -4 30 -9z m-352 -130 c-2 -9 -12
-16 -23 -16 -11 0 -21 7 -23 16 -2 12 4 17 23 17 19 0 25 -5 23 -17z m140 0
c-2 -9 -12 -16 -23 -16 -11 0 -21 7 -23 16 -2 12 4 17 23 17 19 0 25 -5 23
-17z m142 13 c0 -16 -16 -34 -31 -34 -10 0 -19 2 -19 4 0 2 -2 11 -5 19 -4 10
2 14 25 14 16 0 30 -1 30 -3z m128 -13 c-2 -9 -12 -16 -23 -16 -11 0 -21 7
-23 16 -2 12 4 17 23 17 19 0 25 -5 23 -17z m140 0 c-5 -24 -35 -25 -47 -2
-10 18 -8 20 19 19 23 -1 30 -5 28 -17z m-480 -121 c-2 -8 -12 -15 -23 -15
-11 0 -21 7 -23 15 -2 10 6 15 23 15 17 0 25 -5 23 -15z m140 1 c-4 -20 -38
-27 -49 -9 -14 21 -11 25 21 25 23 0 30 -5 28 -16z m142 10 c-1 -32 -52 -41
-58 -10 -2 11 5 16 28 16 16 0 30 -3 30 -6z m128 -11 c-2 -8 -12 -15 -23 -15
-11 0 -21 7 -23 15 -2 10 6 15 23 15 17 0 25 -5 23 -15z m-338 -116 c0 -17
-27 -37 -40 -29 -21 13 -11 40 15 40 14 0 25 -5 25 -11z m140 1 c0 -7 -7 -18
-15 -25 -12 -10 -18 -10 -30 0 -24 20 -17 37 15 37 17 0 30 -6 30 -12z m130
-7 c0 -23 -18 -32 -35 -18 -23 19 -18 35 10 35 17 0 25 -6 25 -17z m-342 -123
c-2 -12 -11 -20 -23 -20 -12 0 -21 8 -23 20 -2 16 3 20 23 20 20 0 25 -4 23
-20z m142 5 c0 -4 -7 -13 -15 -20 -12 -10 -18 -10 -30 0 -25 21 -18 37 15 32
17 -2 30 -8 30 -12z m268 -5 c-2 -12 -11 -20 -23 -20 -12 0 -21 8 -23 20 -2
16 3 20 23 20 20 0 25 -4 23 -20z m-128 6 c0 -5 -7 -14 -15 -21 -12 -10 -18
-10 -30 0 -23 19 -18 30 15 30 17 0 30 -4 30 -9z m-218 -143 c-14 -14 -42 -3
-42 16 0 19 44 26 48 7 2 -7 -1 -18 -6 -23z m143 13 c-8 -25 -40 -28 -49 -5
-9 22 -9 22 22 26 34 4 35 4 27 -21z m133 0 c-5 -24 -42 -20 -46 5 -3 18 1 21
23 16 17 -3 25 -10 23 -21z m-410 2 c-2 -10 -12 -18 -23 -18 -11 0 -21 8 -23
18 -3 13 3 17 23 17 20 0 26 -4 23 -17z m550 0 c-5 -26 -35 -28 -48 -4 -10 19
-8 21 20 21 25 0 31 -4 28 -17z m-480 -122 c-4 -20 -42 -21 -46 -1 -2 10 6 15
23 16 19 2 25 -2 23 -15z m140 0 c-4 -20 -38 -27 -49 -9 -14 21 -11 25 21 25
23 0 30 -5 28 -16z m142 10 c-1 -32 -52 -41 -58 -10 -2 11 5 16 28 16 16 0 30
-3 30 -6z m128 -10 c-2 -9 -12 -16 -23 -16 -11 0 -21 7 -23 16 -2 12 4 17 23
17 19 0 25 -5 23 -17z m-478 -122 c0 -21 -24 -31 -39 -16 -19 19 -12 35 14 33
16 0 25 -7 25 -17z m140 7 c0 -18 -21 -35 -36 -29 -24 9 -16 38 11 39 14 1 25
-3 25 -10z m270 -7 c0 -21 -24 -31 -39 -16 -18 18 -13 32 14 32 17 0 25 -6 25
-16z m140 6 c0 -7 -6 -18 -14 -24 -11 -9 -18 -8 -30 4 -9 9 -14 20 -12 23 8
13 56 10 56 -3z m-638 -126 c-6 -25 -21 -33 -37 -19 -24 20 -18 36 13 34 17
-1 26 -6 24 -15z m138 0 c0 -18 -18 -29 -37 -22 -24 9 -14 38 12 38 17 0 25
-6 25 -16z m450 0 c0 -18 -18 -29 -37 -22 -24 9 -14 38 12 38 17 0 25 -6 25
-16z m140 5 c0 -17 -27 -37 -40 -29 -21 13 -11 40 15 40 14 0 25 -5 25 -11z"/>
<path d="M267 1328 l-267 -212 30 -19 c41 -26 98 -32 141 -14 19 8 110 74 202
148 l167 133 0 88 c0 48 -1 88 -2 88 -2 0 -123 -95 -271 -212z"/>
<path d="M1460 1454 l0 -89 171 -138 c178 -142 219 -165 282 -153 35 6 87 40
77 49 -5 4 -489 388 -517 410 -10 7 -13 -10 -13 -79z"/>
<path d="M464 1261 c-43 -37 -118 -98 -165 -136 -252 -205 -289 -237 -289
-244 0 -16 68 -41 110 -41 23 0 51 5 63 11 22 12 169 134 332 276 l90 78 -31
62 -31 62 -79 -68z"/>
<path d="M1440 1296 c-6 -19 -20 -46 -31 -60 l-20 -25 38 -34 c151 -136 363
-312 390 -323 18 -8 48 -14 67 -14 35 0 106 27 106 41 0 3 -70 64 -157 135
-86 71 -161 134 -167 139 -6 6 -49 41 -96 79 -47 38 -92 75 -102 83 -14 13
-17 11 -28 -21z"/>
<path d="M435 1018 c-104 -93 -232 -206 -282 -250 -51 -45 -93 -85 -93 -90 0
-18 74 -40 118 -35 61 7 67 12 382 302 36 33 67 61 69 62 2 1 12 33 22 70 l19
68 -23 21 -22 22 -190 -170z"/>
<path d="M1355 1170 c-18 -20 -18 -23 -1 -93 l18 -72 180 -164 c187 -171 230
-201 285 -201 38 0 107 26 101 38 -3 8 -123 117 -353 321 -77 69 -156 140
-176 158 l-35 34 -19 -21z"/>
<path d="M372 724 c-128 -118 -232 -219 -232 -224 0 -24 107 -38 156 -20 24
10 220 181 250 219 11 14 67 231 61 237 -2 2 -108 -93 -235 -212z"/>
<path d="M1393 922 c3 -12 16 -65 28 -118 l23 -96 71 -68 c155 -151 183 -170
248 -170 38 0 97 18 97 30 0 6 -373 359 -449 424 l-24 21 6 -23z"/>
<path d="M390 505 c-137 -137 -143 -145 -125 -159 48 -35 119 -25 188 28 30
23 38 37 47 84 6 31 18 86 26 121 8 35 13 65 11 67 -2 2 -68 -62 -147 -141z"/>
<path d="M1460 649 c0 -2 11 -58 24 -124 22 -104 28 -123 53 -143 45 -37 84
-55 124 -56 34 -1 89 20 89 34 0 3 -65 71 -145 150 -80 79 -145 142 -145 139z"/>
<path d="M932 501 l-52 -46 0 -126 c0 -109 2 -128 18 -142 26 -24 59 -21 77 7
13 19 15 53 13 188 l-3 166 -53 -47z"/>
<path d="M1010 383 c0 -183 8 -213 54 -213 47 0 56 26 56 161 l0 124 -55 48
-55 48 0 -168z"/>
<path d="M798 385 l-48 -43 0 -67 c0 -81 11 -105 49 -105 46 0 52 17 49 143
l-3 115 -47 -43z"/>
<path d="M1150 307 c0 -134 1 -137 55 -137 34 0 45 28 45 107 l-1 68 -49 43
-50 44 0 -125z"/>
</g>
</svg>
