<?xml version="1.0" standalone="no"?>
<!DOCTYPE svg PUBLIC "-//W3C//DTD SVG 20010904//EN"
 "http://www.w3.org/TR/2001/REC-SVG-20010904/DTD/svg10.dtd">
<svg version="1.0" xmlns="http://www.w3.org/2000/svg"
 width="356.000000pt" height="358.000000pt" viewBox="0 0 356.000000 358.000000"
 preserveAspectRatio="xMidYMid meet">
<metadata>
Created by potrace 1.16, written by Peter Selinger 2001-2019
</metadata>
<g transform="translate(0.000000,358.000000) scale(0.100000,-0.100000)"
fill="#000000" stroke="none">
<path d="M0 1790 l0 -1790 1783 1 c980 0 1776 3 1770 6 -17 6 -19 3543 -3
3543 6 0 10 7 10 15 0 13 -204 15 -1780 15 l-1780 0 0 -1790z m3344 1564 c15
-6 16 -153 16 -1573 0 -1205 -3 -1570 -12 -1579 -9 -9 -374 -12 -1579 -12
-1420 0 -1567 1 -1573 16 -8 22 -8 3139 1 3147 8 9 3125 9 3147 1z"/>
<path d="M2812 2595 c-23 -7 -53 -20 -67 -29 -48 -31 -107 -143 -134 -253 -6
-24 -16 -61 -21 -83 l-11 -39 -77 -3 -77 -3 -3 -32 -3 -32 73 -3 73 -3 -3 -50
c-1 -27 -7 -70 -12 -95 -5 -25 -14 -81 -20 -125 -6 -44 -15 -105 -20 -135 -5
-30 -14 -86 -20 -125 -45 -276 -89 -415 -132 -415 -14 0 -18 8 -18 33 0 58
-50 85 -98 51 -17 -12 -22 -25 -22 -58 0 -62 33 -91 105 -91 48 0 58 4 90 35
55 52 119 174 146 275 4 17 19 71 32 120 13 50 30 117 36 150 7 33 16 78 21
100 8 38 15 77 44 255 l12 75 80 3 c82 3 104 14 104 54 0 16 -10 18 -86 18
l-87 0 7 63 c16 165 50 268 89 275 28 5 47 -17 47 -54 0 -82 96 -86 129 -6 34
83 -72 159 -177 127z"/>
<path d="M606 2208 c-140 -11 -169 -20 -164 -49 2 -14 16 -25 42 -34 21 -8 43
-20 47 -27 5 -7 9 -108 9 -225 0 -125 5 -233 12 -265 31 -141 142 -206 282
-166 54 15 141 72 174 114 46 57 61 47 64 -43 l3 -78 30 1 c17 1 80 6 140 10
104 9 110 10 113 32 3 19 -4 26 -37 39 -22 8 -43 23 -48 32 -4 9 -10 160 -13
336 l-5 320 -138 -2 c-76 -2 -147 -8 -158 -14 -31 -16 -21 -51 18 -61 56 -15
63 -36 63 -195 0 -213 -36 -325 -120 -368 -35 -18 -99 -19 -121 -2 -36 28 -39
51 -39 344 0 277 -4 318 -29 312 -4 -1 -59 -6 -125 -11z"/>
<path d="M1985 2210 c-58 -9 -106 -35 -150 -80 -22 -22 -42 -40 -46 -40 -3 0
-9 14 -13 31 -8 44 -57 89 -96 89 -71 0 -130 -50 -189 -164 -36 -68 -39 -92
-10 -101 24 -8 19 -13 54 58 51 107 112 147 137 92 11 -25 3 -101 -22 -190 -4
-16 -18 -73 -29 -125 -31 -135 -41 -180 -51 -220 -5 -19 -18 -73 -29 -120 -45
-191 -51 -213 -65 -236 -10 -14 -31 -26 -58 -31 -37 -7 -43 -12 -46 -36 l-3
-27 193 2 193 3 3 28 c3 26 2 27 -42 27 -54 0 -96 17 -96 39 0 28 56 282 71
319 12 30 20 28 52 -18 20 -28 42 -44 83 -59 207 -78 412 83 465 367 29 154
-33 317 -140 371 -43 22 -111 30 -166 21z m71 -100 c96 -47 111 -182 45 -398
-6 -19 -24 -55 -40 -80 -51 -80 -86 -102 -164 -102 -43 0 -59 5 -80 24 -41 38
-57 89 -57 179 0 159 75 324 169 374 54 28 73 29 127 3z"/>
<path d="M2907 1582 c-45 -47 -29 -116 33 -142 56 -23 120 26 120 93 0 13 -13
35 -28 50 -39 37 -89 37 -125 -1z"/>
</g>
</svg>
