<svg version="1.1" id="Layer_1" xmlns="http://www.w3.org/2000/svg" xmlns:xlink="http://www.w3.org/1999/xlink" x="0px" y="0px"
	 width="100%" viewBox="0 0 356 358" enable-background="new 0 0 356 358" xml:space="preserve">
<path fill="#C83336" opacity="1.000000" stroke="none" 
	d="
M355.000000,359.000000 
	C353.933350,359.000000 352.866669,359.000000 351.289703,358.809723 
	C350.519592,358.746307 350.259796,358.873138 350.000000,359.000000 
	C233.748398,359.000000 117.496780,359.000000 1.122586,359.000000 
	C1.122586,239.666779 1.122586,120.333389 1.122586,1.000000 
	C2.335393,1.000000 3.667805,1.000000 5.507123,1.424370 
	C7.884507,2.568244 9.754432,3.915770 11.625542,3.917418 
	C120.542496,4.013342 229.459549,3.995976 338.376587,3.998667 
	C343.867859,3.998802 349.359131,4.079012 354.900848,4.577462 
	C354.967529,123.021988 354.983765,241.011002 355.000000,359.000000 
M153.500000,338.906860 
	C211.977432,338.905945 270.454865,338.907379 328.932312,338.901154 
	C335.868103,338.900391 335.901459,338.869965 335.902008,331.936554 
	C335.909943,231.474686 335.913361,131.012817 335.910309,30.550959 
	C335.910126,23.763041 335.882111,23.745960 328.941437,23.745628 
	C228.479553,23.740829 128.017685,23.740086 27.555807,23.741842 
	C20.756430,23.741962 20.743040,23.754854 20.742891,30.552723 
	C20.740692,131.014603 20.741201,231.476471 20.745485,331.938354 
	C20.745781,338.883850 20.761999,338.911346 27.547441,338.912262 
	C69.198296,338.917877 110.849144,338.910065 153.500000,338.906860 
z"/>
<path fill="#420F11" opacity="1.000000" stroke="none" 
	d="
M354.850403,4.121939 
	C349.359131,4.079012 343.867859,3.998802 338.376587,3.998667 
	C229.459549,3.995976 120.542496,4.013342 11.625542,3.917418 
	C9.754432,3.915770 7.884507,2.568244 6.007015,1.424370 
	C121.666664,1.000000 237.333328,0.992147 352.999908,1.103068 
	C354.252686,1.104269 357.314819,-0.962960 356.641785,3.446232 
	C355.805847,3.968956 355.328125,4.045447 354.850403,4.121939 
z"/>
<path fill="#EDC3B7" opacity="1.000000" stroke="none" 
	d="
M354.900848,4.577462 
	C355.328125,4.045447 355.805847,3.968956 356.641785,3.946232 
	C357.000000,120.833336 357.003723,237.666672 356.958496,354.499969 
	C356.957916,356.000122 356.333344,357.500000 355.500000,359.000000 
	C354.983765,241.011002 354.967529,123.021988 354.900848,4.577462 
z"/>
<path fill="#4A1112" opacity="1.000000" stroke="none" 
	d="
M350.250000,359.000000 
	C350.259796,358.873138 350.519592,358.746307 350.889709,358.809723 
	C351.000000,359.000000 350.500000,359.000000 350.250000,359.000000 
z"/>
<path fill="#FDFCFB" opacity="1.000000" stroke="none" 
	d="
M153.000000,338.906799 
	C110.849144,338.910065 69.198296,338.917877 27.547441,338.912262 
	C20.761999,338.911346 20.745781,338.883850 20.745485,331.938354 
	C20.741201,231.476471 20.740692,131.014603 20.742891,30.552723 
	C20.743040,23.754854 20.756430,23.741962 27.555807,23.741842 
	C128.017685,23.740086 228.479553,23.740829 328.941437,23.745628 
	C335.882111,23.745960 335.910126,23.763041 335.910309,30.550959 
	C335.913361,131.012817 335.909943,231.474686 335.902008,331.936554 
	C335.901459,338.869965 335.868103,338.900391 328.932312,338.901154 
	C270.454865,338.907379 211.977432,338.905945 153.000000,338.906799 
M97.660797,208.772293 
	C99.801704,206.542938 101.942612,204.313583 104.912292,201.892914 
	C105.549141,202.796143 106.619789,203.647095 106.736221,204.613052 
	C107.013557,206.913879 106.969627,209.277390 106.820564,211.600494 
	C106.544586,215.901703 108.582230,217.166077 112.614334,216.727386 
	C119.226860,216.007965 125.866264,215.523621 132.500565,215.022614 
	C134.843002,214.845718 137.383728,215.248215 137.409622,211.679306 
	C137.429871,208.887299 137.351578,206.712341 133.729095,205.682053 
	C131.680634,205.099426 129.782959,202.545654 128.706955,200.427780 
	C127.800034,198.642670 128.016815,196.205688 128.011124,194.056519 
	C127.965332,176.723526 127.915321,159.389923 128.031662,142.057602 
	C128.061584,137.599442 126.566490,135.625580 121.842239,136.116379 
	C114.070549,136.923767 106.233421,137.151627 98.490204,138.142212 
	C96.858116,138.351028 94.470123,140.698196 94.324203,142.239365 
	C94.174889,143.816406 96.057030,146.705261 97.565407,147.112991 
	C102.377205,148.413712 104.096878,151.465805 103.955284,155.911774 
	C103.664024,165.057129 103.745193,174.270828 102.552094,183.308411 
	C101.905273,188.208008 99.436249,193.082886 96.904564,197.456863 
	C94.393959,201.794434 87.583290,204.054230 83.769371,202.560837 
	C78.625923,200.546829 77.524536,196.083893 77.436676,191.161972 
	C77.403961,189.329163 77.414223,187.495468 77.414230,185.662186 
	C77.414284,170.995712 77.340683,156.328613 77.464836,141.663177 
	C77.501671,137.311279 75.875572,135.645798 71.459686,136.118607 
	C64.018448,136.915344 56.543453,137.412445 49.075844,137.939011 
	C46.422176,138.126144 44.630402,138.851730 44.564224,141.982956 
	C44.505852,144.745102 44.767223,146.829498 48.183582,147.348862 
	C52.109867,147.945755 54.503048,150.456177 54.515800,154.508026 
	C54.548813,165.001907 54.365356,175.496292 54.307632,185.990677 
	C54.257011,195.192398 54.175911,204.417694 61.847740,212.107712 
	C71.617523,219.731155 87.414688,218.362793 97.660797,208.772293 
M168.991501,213.664795 
	C169.754227,210.945297 170.516968,208.225815 171.211533,205.749329 
	C175.169327,208.946793 178.125107,212.352432 181.855240,214.161118 
	C193.979401,220.039993 209.793076,215.670975 219.049973,204.168365 
	C228.448547,192.489700 232.400116,179.029968 231.052628,164.110947 
	C230.015884,152.632156 225.556610,142.859558 214.302917,138.385529 
	C203.022217,133.900742 192.761963,136.978851 183.968613,145.176025 
	C182.842239,146.226028 181.622498,147.175873 180.284149,148.309158 
	C175.046387,135.459976 164.062698,133.673645 155.721817,144.237793 
	C151.391647,149.722183 148.422928,156.281494 144.944351,162.176987 
	C151.079376,167.096222 151.015594,167.063126 153.950058,161.408020 
	C155.706024,158.024048 157.368301,154.500412 159.712830,151.547882 
	C161.064743,149.845398 163.691315,149.155075 165.744156,148.009171 
	C166.407440,150.098251 167.826950,152.276154 167.593948,154.259964 
	C166.858551,160.521332 165.758118,166.768585 164.341324,172.915817 
	C160.050278,191.533997 155.352997,210.060303 151.226318,228.713638 
	C149.809998,235.115616 148.491455,240.645218 140.540604,241.564362 
	C139.200317,241.719315 138.194412,244.766815 137.034012,246.477844 
	C138.641403,247.396408 140.229797,249.068848 141.859299,249.109909 
	C151.680908,249.357361 161.522064,248.964539 171.335754,249.337021 
	C176.613342,249.537323 178.038803,247.151367 177.921143,242.054398 
	C174.623016,241.593826 171.384476,241.151138 168.148972,240.687195 
	C164.714859,240.194763 163.189926,238.607727 164.155151,234.858780 
	C165.893539,228.106918 167.322891,221.275497 168.991501,213.664795 
M280.117523,108.482277 
	C281.512390,107.864159 282.907227,107.246040 284.302094,106.627914 
	C284.870422,108.068726 285.864410,109.490189 285.930939,110.953812 
	C286.175476,116.334724 287.751099,118.260742 292.429382,118.442642 
	C296.991638,118.620033 299.635529,116.220947 300.815857,112.113075 
	C302.168427,107.405914 300.058472,102.468307 295.935181,100.076569 
	C288.143311,95.556839 276.846191,98.266014 270.885406,105.868752 
	C264.078583,114.550613 261.747101,124.965675 259.401794,135.321030 
	C258.643951,138.667175 257.255524,139.795303 254.050873,139.562988 
	C251.566330,139.382843 249.045731,139.690323 246.562805,139.499512 
	C242.463837,139.184479 241.635956,142.118225 241.826080,144.909439 
	C241.898178,145.967957 244.644958,147.453094 246.310638,147.666412 
	C249.685104,148.098572 253.153748,147.795410 257.095642,147.795410 
	C256.893524,150.455338 256.875946,152.257599 256.604095,154.020660 
	C253.994659,170.942566 251.654144,187.914642 248.587555,204.754150 
	C246.689438,215.177185 243.819458,225.436798 241.033371,235.673859 
	C240.430710,237.888245 238.317841,239.691620 236.900604,241.684311 
	C235.497360,240.186554 235.233627,239.280029 235.163742,238.358780 
	C234.774902,233.232330 233.078110,231.495834 228.614227,231.739746 
	C224.498581,231.964645 221.654221,235.133347 221.770966,239.363373 
	C221.929962,245.124451 226.023773,249.252930 231.811096,249.785843 
	C238.463943,250.398438 243.389709,247.083282 246.400833,241.946930 
	C250.562820,234.847534 254.385025,227.358887 257.007263,219.583176 
	C264.305847,197.940430 268.162415,175.477890 271.206604,152.891678 
	C271.699463,149.235031 273.090759,147.501938 276.923218,147.744354 
	C280.239685,147.954132 283.585938,147.881592 286.909973,147.732330 
	C290.699982,147.562164 290.823181,144.414841 290.707214,141.883881 
	C290.668793,141.044861 288.257233,139.791336 286.835785,139.644241 
	C283.539825,139.303146 280.185364,139.477615 276.855835,139.526688 
	C274.209198,139.565689 273.129028,138.239288 273.663239,135.780045 
	C275.595062,126.886864 277.624146,118.014816 280.117523,108.482277 
M296.808197,197.103012 
	C292.118622,198.069458 289.011597,200.541626 288.600677,205.638840 
	C288.243347,210.071045 289.864380,213.611145 293.943451,215.360321 
	C297.644989,216.947617 302.041321,216.920135 304.398651,213.529465 
	C306.248901,210.868179 307.296143,206.799591 306.865417,203.603409 
	C306.241852,198.975769 302.130005,197.222351 296.808197,197.103012 
z"/>
<path fill="#CA3C3B" opacity="1.000000" stroke="none" 
	d="
M168.936417,214.071045 
	C167.322891,221.275497 165.893539,228.106918 164.155151,234.858780 
	C163.189926,238.607727 164.714859,240.194763 168.148972,240.687195 
	C171.384476,241.151138 174.623016,241.593826 177.921143,242.054398 
	C178.038803,247.151367 176.613342,249.537323 171.335754,249.337021 
	C161.522064,248.964539 151.680908,249.357361 141.859299,249.109909 
	C140.229797,249.068848 138.641403,247.396408 137.034012,246.477844 
	C138.194412,244.766815 139.200317,241.719315 140.540604,241.564362 
	C148.491455,240.645218 149.809998,235.115616 151.226318,228.713638 
	C155.352997,210.060303 160.050278,191.533997 164.341324,172.915817 
	C165.758118,166.768585 166.858551,160.521332 167.593948,154.259964 
	C167.826950,152.276154 166.407440,150.098251 165.744156,148.009171 
	C163.691315,149.155075 161.064743,149.845398 159.712830,151.547882 
	C157.368301,154.500412 155.706024,158.024048 153.950058,161.408020 
	C151.015594,167.063126 151.079376,167.096222 144.944351,162.176987 
	C148.422928,156.281494 151.391647,149.722183 155.721817,144.237793 
	C164.062698,133.673645 175.046387,135.459976 180.284149,148.309158 
	C181.622498,147.175873 182.842239,146.226028 183.968613,145.176025 
	C192.761963,136.978851 203.022217,133.900742 214.302917,138.385529 
	C225.556610,142.859558 230.015884,152.632156 231.052628,164.110947 
	C232.400116,179.029968 228.448547,192.489700 219.049973,204.168365 
	C209.793076,215.670975 193.979401,220.039993 181.855240,214.161118 
	C178.125107,212.352432 175.169327,208.946793 171.211533,205.749329 
	C170.516968,208.225815 169.754227,210.945297 168.936417,214.071045 
M211.529648,153.106110 
	C205.494568,144.875977 194.288467,145.244904 187.571030,154.254959 
	C179.493805,165.088913 176.590591,177.627960 177.596954,190.888840 
	C178.373581,201.122543 184.514740,207.237137 192.514771,205.649582 
	C196.578461,204.843170 201.401245,202.369995 203.698792,199.111649 
	C213.338623,185.440475 217.943710,170.443481 211.529648,153.106110 
z"/>
<path fill="#CB3E3D" opacity="1.000000" stroke="none" 
	d="
M279.867004,108.808533 
	C277.624146,118.014816 275.595062,126.886864 273.663239,135.780045 
	C273.129028,138.239288 274.209198,139.565689 276.855835,139.526688 
	C280.185364,139.477615 283.539825,139.303146 286.835785,139.644241 
	C288.257233,139.791336 290.668793,141.044861 290.707214,141.883881 
	C290.823181,144.414841 290.699982,147.562164 286.909973,147.732330 
	C283.585938,147.881592 280.239685,147.954132 276.923218,147.744354 
	C273.090759,147.501938 271.699463,149.235031 271.206604,152.891678 
	C268.162415,175.477890 264.305847,197.940430 257.007263,219.583176 
	C254.385025,227.358887 250.562820,234.847534 246.400833,241.946930 
	C243.389709,247.083282 238.463943,250.398438 231.811096,249.785843 
	C226.023773,249.252930 221.929962,245.124451 221.770966,239.363373 
	C221.654221,235.133347 224.498581,231.964645 228.614227,231.739746 
	C233.078110,231.495834 234.774902,233.232330 235.163742,238.358780 
	C235.233627,239.280029 235.497360,240.186554 236.900604,241.684311 
	C238.317841,239.691620 240.430710,237.888245 241.033371,235.673859 
	C243.819458,225.436798 246.689438,215.177185 248.587555,204.754150 
	C251.654144,187.914642 253.994659,170.942566 256.604095,154.020660 
	C256.875946,152.257599 256.893524,150.455338 257.095642,147.795410 
	C253.153748,147.795410 249.685104,148.098572 246.310638,147.666412 
	C244.644958,147.453094 241.898178,145.967957 241.826080,144.909439 
	C241.635956,142.118225 242.463837,139.184479 246.562805,139.499512 
	C249.045731,139.690323 251.566330,139.382843 254.050873,139.562988 
	C257.255524,139.795303 258.643951,138.667175 259.401794,135.321030 
	C261.747101,124.965675 264.078583,114.550613 270.885406,105.868752 
	C276.846191,98.266014 288.143311,95.556839 295.935181,100.076569 
	C300.058472,102.468307 302.168427,107.405914 300.815857,112.113075 
	C299.635529,116.220947 296.991638,118.620033 292.429382,118.442642 
	C287.751099,118.260742 286.175476,116.334724 285.930939,110.953812 
	C285.864410,109.490189 284.870422,108.068726 284.302094,106.627914 
	C282.907227,107.246040 281.512390,107.864159 279.867004,108.808533 
z"/>
<path fill="#DB8374" opacity="1.000000" stroke="none" 
	d="
M61.414341,211.603607 
	C54.175911,204.417694 54.257011,195.192398 54.307632,185.990677 
	C54.365356,175.496292 54.548813,165.001907 54.515800,154.508026 
	C54.503048,150.456177 52.109867,147.945755 48.183582,147.348862 
	C44.767223,146.829498 44.505852,144.745102 44.564224,141.982956 
	C44.630402,138.851730 46.422176,138.126144 49.075844,137.939011 
	C56.543453,137.412445 64.018448,136.915344 71.459686,136.118607 
	C75.875572,135.645798 77.501671,137.311279 77.464836,141.663177 
	C77.340683,156.328613 77.414284,170.995712 77.414230,185.662186 
	C77.414223,187.495468 77.403961,189.329163 77.436676,191.161972 
	C77.524536,196.083893 78.625923,200.546829 83.769371,202.560837 
	C87.583290,204.054230 94.393959,201.794434 96.904564,197.456863 
	C99.436249,193.082886 101.905273,188.208008 102.552094,183.308411 
	C103.745193,174.270828 103.664024,165.057129 103.955284,155.911774 
	C104.096878,151.465805 102.377205,148.413712 97.565407,147.112991 
	C96.057030,146.705261 94.174889,143.816406 94.324203,142.239365 
	C94.470123,140.698196 96.858116,138.351028 98.490204,138.142212 
	C106.233421,137.151627 114.070549,136.923767 121.842239,136.116379 
	C126.566490,135.625580 128.061584,137.599442 128.031662,142.057602 
	C127.915321,159.389923 127.965332,176.723526 128.011124,194.056519 
	C128.016815,196.205688 127.800034,198.642670 128.706955,200.427780 
	C129.782959,202.545654 131.680634,205.099426 133.729095,205.682053 
	C137.351578,206.712341 137.429871,208.887299 137.409622,211.679306 
	C137.383728,215.248215 134.843002,214.845718 132.500565,215.022614 
	C125.866264,215.523621 119.226860,216.007965 112.614334,216.727386 
	C108.582230,217.166077 106.544586,215.901703 106.820564,211.600494 
	C106.969627,209.277390 107.013557,206.913879 106.736221,204.613052 
	C106.619789,203.647095 105.549141,202.796143 104.354134,201.844437 
	C103.795975,201.795959 103.508377,201.507751 103.685081,201.240479 
	C106.555161,198.071182 108.054276,199.697159 108.514511,202.531784 
	C108.963730,205.298553 108.815895,208.180527 108.750885,211.007797 
	C108.675232,214.298218 110.257828,215.518326 113.381844,215.202881 
	C120.001839,214.534454 126.635002,213.977737 133.235840,213.158386 
	C134.240356,213.033707 135.733658,211.838058 135.855698,210.975693 
	C135.986237,210.052994 134.955444,208.259125 134.098114,208.014633 
	C126.855080,205.948959 126.217697,200.446976 126.259224,194.226181 
	C126.372650,177.232712 126.191559,160.236908 126.364159,143.244461 
	C126.407761,138.952347 124.827621,137.658066 120.734207,138.107635 
	C114.127502,138.833252 107.470856,139.108704 100.867798,139.859924 
	C99.158058,140.054459 97.569153,141.311050 95.924744,142.079803 
	C97.130150,143.347519 98.109695,145.092499 99.584702,145.790466 
	C103.486145,147.636658 105.637039,150.490692 105.630341,154.732498 
	C105.618790,162.055573 106.093330,169.475739 105.075653,176.672989 
	C104.117149,183.451752 102.142937,190.275452 99.420761,196.562012 
	C96.819031,202.570435 88.701279,205.863632 83.526985,204.391953 
	C78.691414,203.016617 76.215919,198.360916 76.208893,190.514923 
	C76.194717,174.686981 76.123642,158.858322 76.258865,143.031540 
	C76.292404,139.106003 74.997299,137.634506 70.979729,138.075424 
	C63.875980,138.855042 56.721523,139.173889 49.618942,139.961884 
	C48.319035,140.106110 47.164814,141.563477 45.943344,142.414703 
	C46.956848,143.489594 47.783234,145.135605 49.016525,145.539658 
	C54.123432,147.212799 55.931217,150.648682 55.841110,155.804962 
	C55.666462,165.798615 56.017181,175.805283 55.687469,185.791290 
	C55.387741,194.869034 56.770607,203.348114 61.916321,211.083801 
	C61.745815,211.253967 61.414341,211.603607 61.414341,211.603607 
z"/>
<path fill="#CA3C3B" opacity="1.000000" stroke="none" 
	d="
M297.204468,197.051590 
	C302.130005,197.222351 306.241852,198.975769 306.865417,203.603409 
	C307.296143,206.799591 306.248901,210.868179 304.398651,213.529465 
	C302.041321,216.920135 297.644989,216.947617 293.943451,215.360321 
	C289.864380,213.611145 288.243347,210.071045 288.600677,205.638840 
	C289.011597,200.541626 292.118622,198.069458 297.204468,197.051590 
z"/>
<path fill="#DB8374" opacity="1.000000" stroke="none" 
	d="
M97.058823,209.057709 
	C87.414688,218.362793 71.617523,219.731155 61.631042,211.855652 
	C61.414341,211.603607 61.745815,211.253967 62.242714,211.215790 
	C67.382050,214.465530 72.671875,216.501404 78.156013,215.122391 
	C84.424706,213.546082 90.385132,210.743881 96.624313,208.620209 
	C96.769127,208.766068 97.058823,209.057709 97.058823,209.057709 
z"/>
<path fill="#DB8374" opacity="1.000000" stroke="none" 
	d="
M103.939743,201.940094 
	C101.942612,204.313583 99.801704,206.542938 97.359810,208.915009 
	C97.058823,209.057709 96.769127,208.766068 96.826408,208.363663 
	C99.091919,205.810089 101.300148,203.658920 103.508377,201.507751 
	C103.508377,201.507751 103.795975,201.795959 103.939743,201.940094 
z"/>
<path fill="#FCF6F4" opacity="1.000000" stroke="none" 
	d="
M211.749390,153.420868 
	C217.943710,170.443481 213.338623,185.440475 203.698792,199.111649 
	C201.401245,202.369995 196.578461,204.843170 192.514771,205.649582 
	C184.514740,207.237137 178.373581,201.122543 177.596954,190.888840 
	C176.590591,177.627960 179.493805,165.088913 187.571030,154.254959 
	C194.288467,145.244904 205.494568,144.875977 211.749390,153.420868 
z"/>
<path fill="#C83235" opacity="1.000000" stroke="none" 
	d="
M103.685081,201.240479 
	C101.300148,203.658920 99.091919,205.810089 96.681595,208.217804 
	C90.385132,210.743881 84.424706,213.546082 78.156013,215.122391 
	C72.671875,216.501404 67.382050,214.465530 62.413223,211.045624 
	C56.770607,203.348114 55.387741,194.869034 55.687469,185.791290 
	C56.017181,175.805283 55.666462,165.798615 55.841110,155.804962 
	C55.931217,150.648682 54.123432,147.212799 49.016525,145.539658 
	C47.783234,145.135605 46.956848,143.489594 45.943344,142.414703 
	C47.164814,141.563477 48.319035,140.106110 49.618942,139.961884 
	C56.721523,139.173889 63.875980,138.855042 70.979729,138.075424 
	C74.997299,137.634506 76.292404,139.106003 76.258865,143.031540 
	C76.123642,158.858322 76.194717,174.686981 76.208893,190.514923 
	C76.215919,198.360916 78.691414,203.016617 83.526985,204.391953 
	C88.701279,205.863632 96.819031,202.570435 99.420761,196.562012 
	C102.142937,190.275452 104.117149,183.451752 105.075653,176.672989 
	C106.093330,169.475739 105.618790,162.055573 105.630341,154.732498 
	C105.637039,150.490692 103.486145,147.636658 99.584702,145.790466 
	C98.109695,145.092499 97.130150,143.347519 95.924744,142.079803 
	C97.569153,141.311050 99.158058,140.054459 100.867798,139.859924 
	C107.470856,139.108704 114.127502,138.833252 120.734207,138.107635 
	C124.827621,137.658066 126.407761,138.952347 126.364159,143.244461 
	C126.191559,160.236908 126.372650,177.232712 126.259224,194.226181 
	C126.217697,200.446976 126.855080,205.948959 134.098114,208.014633 
	C134.955444,208.259125 135.986237,210.052994 135.855698,210.975693 
	C135.733658,211.838058 134.240356,213.033707 133.235840,213.158386 
	C126.635002,213.977737 120.001839,214.534454 113.381844,215.202881 
	C110.257828,215.518326 108.675232,214.298218 108.750885,211.007797 
	C108.815895,208.180527 108.963730,205.298553 108.514511,202.531784 
	C108.054276,199.697159 106.555161,198.071182 103.685081,201.240479 
z"/>
</svg>