<svg version="1.1" id="Layer_1" xmlns="http://www.w3.org/2000/svg" xmlns:xlink="http://www.w3.org/1999/xlink" x="0px" y="0px"
	 width="100%" viewBox="0 0 200 200" enable-background="new 0 0 200 200" xml:space="preserve">
<path fill="#FDFDFD" opacity="1.000000" stroke="none" 
	d="
M118.000000,201.000000 
	C78.690948,201.000000 39.881901,201.000000 1.072848,201.000000 
	C1.048564,200.857727 1.003002,200.715439 1.002996,200.573166 
	C0.999957,134.114746 1.000000,67.656326 1.000000,1.098956 
	C67.558884,1.098956 134.117950,1.098956 200.838516,1.098956 
	C200.838516,67.666351 200.838516,134.333145 200.838516,201.000000 
	C173.465561,201.000000 145.982788,201.000000 118.000000,201.000000 
M34.564240,30.624891 
	C30.231592,30.641975 25.898352,30.711109 21.566462,30.661768 
	C17.075191,30.610611 14.981792,32.450600 16.302254,37.672222 
	C20.459019,36.855995 20.885504,39.727661 21.340803,43.005405 
	C22.003403,47.775497 23.108374,52.483524 24.002439,57.222214 
	C26.117290,68.431274 28.219007,79.642815 30.298819,90.708549 
	C41.602234,91.438217 41.611691,91.440033 44.395042,80.994011 
	C46.106518,74.570808 47.767269,68.134041 49.493748,61.714912 
	C49.924011,60.115181 50.520485,58.560150 51.387238,55.934315 
	C54.765755,68.375816 57.809151,79.583237 60.818348,90.664711 
	C72.069290,91.548790 72.286774,91.343430 74.155090,80.898987 
	C76.469177,67.962631 78.815544,55.031399 81.294250,42.126049 
	C81.570824,40.686062 82.489388,38.728977 83.644501,38.216919 
	C87.265472,36.611740 87.308327,34.027199 86.687607,30.687309 
	C81.180885,30.687309 75.861496,30.691813 70.542122,30.685900 
	C66.199577,30.681072 64.502647,32.793232 65.410149,37.234913 
	C66.905640,37.694809 68.432365,38.164307 70.255592,38.724987 
	C68.753006,47.469326 67.283958,56.018536 65.814911,64.567749 
	C65.529099,64.591423 65.243294,64.615097 64.957481,64.638763 
	C61.534088,53.336544 58.110695,42.034325 54.750214,30.939800 
	C52.183498,30.939800 50.084545,30.939800 47.898846,30.939800 
	C44.758926,41.988735 41.686413,52.800468 38.613899,63.612198 
	C38.223839,63.546299 37.833778,63.480400 37.443718,63.414501 
	C35.939190,55.327934 34.434662,47.241367 32.930138,39.154800 
	C33.438942,39.361553 33.947750,39.568310 34.456558,39.775063 
	C35.952450,37.407127 37.448341,35.039188 38.944233,32.671249 
	C37.761330,31.992428 36.578426,31.313608 34.564240,30.624891 
M150.500809,90.950821 
	C156.636871,90.639160 162.877258,90.926163 168.885178,89.879135 
	C178.514694,88.200943 183.676315,81.018936 182.979233,71.715775 
	C182.528275,65.697098 178.853012,62.004536 173.418671,59.382439 
	C179.690506,54.189548 182.020996,48.001217 179.331177,40.823975 
	C176.562927,33.437473 169.960236,31.273939 162.839645,30.908899 
	C155.531128,30.534225 148.193573,30.736227 140.868988,30.660637 
	C136.366379,30.614168 134.449493,32.637619 135.429428,37.229443 
	C137.360245,37.837025 139.199646,38.415840 140.967575,38.972168 
	C140.967575,53.632240 140.967575,67.931328 140.967575,82.596329 
	C136.344437,83.360443 133.907532,85.759773 135.466385,90.950813 
	C140.210144,90.950813 144.856949,90.950813 150.500809,90.950821 
M152.441376,132.641403 
	C147.664124,134.048538 144.522461,137.278931 143.952728,142.096527 
	C143.314178,147.495987 143.048340,153.039474 143.511612,158.443878 
	C144.082687,165.105927 148.035736,169.798538 154.859619,170.438065 
	C163.466583,171.244720 172.835617,173.498672 179.401474,165.197952 
	C183.981323,159.407974 183.868011,142.654404 179.230377,137.049164 
	C177.372986,134.804230 174.222214,132.641068 171.454071,132.340805 
	C165.431290,131.687531 159.276093,132.255127 152.441376,132.641403 
M46.922981,170.867172 
	C53.443314,169.954910 58.594749,166.933563 59.481731,160.047394 
	C60.215839,154.348053 60.161907,148.424942 59.526787,142.704254 
	C58.823471,136.369354 54.540474,132.536835 48.208122,131.952087 
	C43.128323,131.483002 37.906830,131.390015 32.858219,132.016556 
	C25.523083,132.926849 21.369019,137.708832 21.149620,145.863556 
	C20.914965,154.585327 18.709784,164.429977 29.314276,169.404404 
	C31.637596,170.494232 34.444164,170.747452 37.062962,170.962585 
	C40.033993,171.206619 43.044109,170.974777 46.922981,170.867172 
M121.079918,157.113556 
	C120.308533,150.593781 120.992851,143.422287 118.432571,137.703369 
	C114.352539,128.589783 89.689110,128.657852 84.857681,137.515793 
	C80.147919,146.150665 80.510788,155.595978 84.612923,164.423172 
	C85.753479,166.877487 89.169762,169.318802 91.877411,169.774902 
	C96.945190,170.628571 102.268280,170.235825 107.466858,169.983932 
	C116.431442,169.549576 119.078308,167.073547 121.079918,157.113556 
M107.349007,77.962990 
	C113.486961,66.176804 119.788750,54.471310 125.658714,42.553131 
	C127.325897,39.168125 127.735260,35.163616 128.869537,30.884529 
	C115.471901,30.884529 103.392792,30.884529 90.841644,30.884529 
	C90.841644,33.626148 90.803123,36.238342 90.852486,38.848873 
	C90.901718,41.452785 91.165558,44.363842 94.596176,44.063477 
	C96.288109,43.915337 97.833092,42.088886 100.669502,40.210789 
	C103.572220,40.210789 108.215027,40.210789 113.306496,40.210789 
	C105.965919,54.072758 98.792053,67.353096 91.929626,80.792465 
	C90.466995,83.656860 90.136948,87.099571 89.183296,90.655495 
	C103.644302,90.655495 116.846794,90.655495 130.018600,90.655495 
	C131.031998,79.354172 129.919006,75.345520 124.392326,77.251289 
	C122.930206,79.092026 121.999069,81.381607 120.883789,81.475128 
	C116.030212,81.882133 111.123039,81.649910 105.741562,81.649910 
	C106.392097,80.139565 106.709976,79.401550 107.349007,77.962990 
z"/>
<path fill="#1E1C20" opacity="1.000000" stroke="none" 
	d="
M34.979881,30.629839 
	C36.578426,31.313608 37.761330,31.992428 38.944233,32.671249 
	C37.448341,35.039188 35.952450,37.407127 34.456558,39.775063 
	C33.947750,39.568310 33.438942,39.361553 32.930138,39.154800 
	C34.434662,47.241367 35.939190,55.327934 37.443718,63.414501 
	C37.833778,63.480400 38.223839,63.546299 38.613899,63.612198 
	C41.686413,52.800468 44.758926,41.988735 47.898846,30.939800 
	C50.084545,30.939800 52.183498,30.939800 54.750214,30.939800 
	C58.110695,42.034325 61.534088,53.336544 64.957481,64.638763 
	C65.243294,64.615097 65.529099,64.591423 65.814911,64.567749 
	C67.283958,56.018536 68.753006,47.469326 70.255592,38.724987 
	C68.432365,38.164307 66.905640,37.694809 65.410149,37.234913 
	C64.502647,32.793232 66.199577,30.681072 70.542122,30.685900 
	C75.861496,30.691813 81.180885,30.687309 86.687607,30.687309 
	C87.308327,34.027199 87.265472,36.611740 83.644501,38.216919 
	C82.489388,38.728977 81.570824,40.686062 81.294250,42.126049 
	C78.815544,55.031399 76.469177,67.962631 74.155090,80.898987 
	C72.286774,91.343430 72.069290,91.548790 60.818348,90.664711 
	C57.809151,79.583237 54.765755,68.375816 51.387238,55.934315 
	C50.520485,58.560150 49.924011,60.115181 49.493748,61.714912 
	C47.767269,68.134041 46.106518,74.570808 44.395042,80.994011 
	C41.611691,91.440033 41.602234,91.438217 30.298819,90.708549 
	C28.219007,79.642815 26.117290,68.431274 24.002439,57.222214 
	C23.108374,52.483524 22.003403,47.775497 21.340803,43.005405 
	C20.885504,39.727661 20.459019,36.855995 16.302254,37.672222 
	C14.981792,32.450600 17.075191,30.610611 21.566462,30.661768 
	C25.898352,30.711109 30.231592,30.641975 34.979881,30.629839 
z"/>
<path fill="#1E1C20" opacity="1.000000" stroke="none" 
	d="
M150.002289,90.950821 
	C144.856949,90.950813 140.210144,90.950813 135.466385,90.950813 
	C133.907532,85.759773 136.344437,83.360443 140.967575,82.596329 
	C140.967575,67.931328 140.967575,53.632240 140.967575,38.972168 
	C139.199646,38.415840 137.360245,37.837025 135.429428,37.229443 
	C134.449493,32.637619 136.366379,30.614168 140.868988,30.660637 
	C148.193573,30.736227 155.531128,30.534225 162.839645,30.908899 
	C169.960236,31.273939 176.562927,33.437473 179.331177,40.823975 
	C182.020996,48.001217 179.690506,54.189548 173.418671,59.382439 
	C178.853012,62.004536 182.528275,65.697098 182.979233,71.715775 
	C183.676315,81.018936 178.514694,88.200943 168.885178,89.879135 
	C162.877258,90.926163 156.636871,90.639160 150.002289,90.950821 
M156.584549,81.665321 
	C158.889526,81.458961 161.236771,81.460197 163.490341,81.001373 
	C167.690842,80.146172 170.201508,77.671440 170.224716,73.111267 
	C170.248703,68.399078 168.364899,65.002083 163.548447,64.040047 
	C160.875427,63.506138 158.075256,63.608753 154.581177,63.374001 
	C154.984619,69.882538 155.346695,75.723404 156.584549,81.665321 
M154.939331,45.534771 
	C154.939331,48.458275 154.939331,51.381775 154.939331,54.239574 
	C163.485291,54.736248 167.827438,52.129490 167.858734,46.910877 
	C167.889771,41.733086 163.756363,39.514683 155.138214,40.258663 
	C155.073059,41.673302 155.006088,43.127480 154.939331,45.534771 
z"/>
<path fill="#6BAF27" opacity="1.000000" stroke="none" 
	d="
M152.808197,132.482559 
	C159.276093,132.255127 165.431290,131.687531 171.454071,132.340805 
	C174.222214,132.641068 177.372986,134.804230 179.230377,137.049164 
	C183.868011,142.654404 183.981323,159.407974 179.401474,165.197952 
	C172.835617,173.498672 163.466583,171.244720 154.859619,170.438065 
	C148.035736,169.798538 144.082687,165.105927 143.511612,158.443878 
	C143.048340,153.039474 143.314178,147.495987 143.952728,142.096527 
	C144.522461,137.278931 147.664124,134.048538 152.808197,132.482559 
z"/>
<path fill="#0781B3" opacity="1.000000" stroke="none" 
	d="
M46.480110,170.908508 
	C43.044109,170.974777 40.033993,171.206619 37.062962,170.962585 
	C34.444164,170.747452 31.637596,170.494232 29.314276,169.404404 
	C18.709784,164.429977 20.914965,154.585327 21.149620,145.863556 
	C21.369019,137.708832 25.523083,132.926849 32.858219,132.016556 
	C37.906830,131.390015 43.128323,131.483002 48.208122,131.952087 
	C54.540474,132.536835 58.823471,136.369354 59.526787,142.704254 
	C60.161907,148.424942 60.215839,154.348053 59.481731,160.047394 
	C58.594749,166.933563 53.443314,169.954910 46.480110,170.908508 
z"/>
<path fill="#C3057B" opacity="1.000000" stroke="none" 
	d="
M121.046989,157.560272 
	C119.078308,167.073547 116.431442,169.549576 107.466858,169.983932 
	C102.268280,170.235825 96.945190,170.628571 91.877411,169.774902 
	C89.169762,169.318802 85.753479,166.877487 84.612923,164.423172 
	C80.510788,155.595978 80.147919,146.150665 84.857681,137.515793 
	C89.689110,128.657852 114.352539,128.589783 118.432571,137.703369 
	C120.992851,143.422287 120.308533,150.593781 121.046989,157.560272 
z"/>
<path fill="#1D1C20" opacity="1.000000" stroke="none" 
	d="
M107.188431,78.313263 
	C106.709976,79.401550 106.392097,80.139565 105.741562,81.649910 
	C111.123039,81.649910 116.030212,81.882133 120.883789,81.475128 
	C121.999069,81.381607 122.930206,79.092026 124.392326,77.251289 
	C129.919006,75.345520 131.031998,79.354172 130.018600,90.655495 
	C116.846794,90.655495 103.644302,90.655495 89.183296,90.655495 
	C90.136948,87.099571 90.466995,83.656860 91.929626,80.792465 
	C98.792053,67.353096 105.965919,54.072758 113.306496,40.210789 
	C108.215027,40.210789 103.572220,40.210789 100.669502,40.210789 
	C97.833092,42.088886 96.288109,43.915337 94.596176,44.063477 
	C91.165558,44.363842 90.901718,41.452785 90.852486,38.848873 
	C90.803123,36.238342 90.841644,33.626148 90.841644,30.884529 
	C103.392792,30.884529 115.471901,30.884529 128.869537,30.884529 
	C127.735260,35.163616 127.325897,39.168125 125.658714,42.553131 
	C119.788750,54.471310 113.486961,66.176804 107.188431,78.313263 
z"/>
<path fill="#F9F9F9" opacity="1.000000" stroke="none" 
	d="
M156.146652,81.614792 
	C155.346695,75.723404 154.984619,69.882538 154.581177,63.374001 
	C158.075256,63.608753 160.875427,63.506138 163.548447,64.040047 
	C168.364899,65.002083 170.248703,68.399078 170.224716,73.111267 
	C170.201508,77.671440 167.690842,80.146172 163.490341,81.001373 
	C161.236771,81.460197 158.889526,81.458961 156.146652,81.614792 
z"/>
<path fill="#F9F7F8" opacity="1.000000" stroke="none" 
	d="
M154.939224,45.058212 
	C155.006088,43.127480 155.073059,41.673302 155.138214,40.258663 
	C163.756363,39.514683 167.889771,41.733086 167.858734,46.910877 
	C167.827438,52.129490 163.485291,54.736248 154.939331,54.239574 
	C154.939331,51.381775 154.939331,48.458275 154.939224,45.058212 
z"/>
</svg>