<?xml version="1.0" standalone="no"?>
<!DOCTYPE svg PUBLIC "-//W3C//DTD SVG 20010904//EN"
 "http://www.w3.org/TR/2001/REC-SVG-20010904/DTD/svg10.dtd">
<svg version="1.0" xmlns="http://www.w3.org/2000/svg"
 width="540.000000pt" height="540.000000pt" viewBox="0 0 540.000000 540.000000"
 preserveAspectRatio="xMidYMid meet">
<metadata>
Created by potrace 1.10, written by Peter Selinger 2001-2011
</metadata>
<g transform="translate(0.000000,540.000000) scale(0.100000,-0.100000)"
fill="#000000" stroke="none">
<path d="M820 3805 c-82 -19 -131 -48 -187 -108 -132 -145 -177 -355 -134
-622 36 -221 219 -405 406 -407 72 -1 154 27 186 64 20 22 34 29 55 26 l29 -3
-3 -115 c-4 -137 -20 -196 -74 -267 -51 -67 -134 -110 -228 -119 -76 -7 -177
18 -272 68 -31 17 -61 27 -66 24 -12 -7 -13 -125 -2 -146 24 -45 391 -64 495
-26 125 45 202 105 243 189 62 125 63 138 60 817 l-3 615 -63 3 c-68 3 -92 -7
-92 -40 0 -33 -28 -31 -69 4 -63 53 -168 70 -281 43z m176 -90 c46 -23 114
-90 114 -113 0 -5 6 -15 14 -21 18 -15 52 -122 67 -210 15 -82 6 -267 -16
-341 -31 -108 -112 -228 -175 -260 -51 -26 -134 -27 -175 -1 -119 73 -178 234
-178 481 1 362 153 563 349 465z"/>
<path d="M1937 3809 c-121 -16 -222 -89 -284 -206 -44 -83 -77 -260 -70 -373
8 -118 34 -233 70 -310 41 -88 139 -186 228 -228 91 -44 230 -60 367 -44 125
14 160 27 168 59 11 41 -6 47 -91 33 -90 -15 -201 -9 -269 17 -62 23 -123 77
-180 159 -65 92 -93 186 -113 376 -9 93 -29 88 343 88 375 0 343 -12 320 124
-17 94 -42 144 -110 214 -58 62 -98 79 -209 91 -53 6 -98 10 -99 10 -2 -1 -34
-5 -71 -10z m214 -90 c45 -23 86 -76 110 -144 42 -119 41 -120 -234 -116 -122
1 -229 7 -239 12 -63 34 56 244 149 265 15 3 33 7 38 9 24 8 143 -9 176 -26z"/>
<path d="M4354 3809 c-183 -19 -274 -114 -274 -284 0 -68 4 -87 28 -130 32
-59 120 -133 213 -179 146 -72 231 -129 269 -181 43 -58 52 -91 37 -146 -13
-54 -82 -124 -138 -140 -54 -16 -193 -16 -245 1 -21 6 -67 26 -101 43 -34 17
-64 29 -67 26 -2 -2 -6 -31 -7 -64 -3 -60 -3 -60 31 -77 109 -52 407 -47 515
10 56 29 129 109 148 162 25 67 23 185 -4 245 -21 47 -95 135 -113 135 -5 0
-17 7 -26 15 -16 14 -112 68 -220 122 -30 16 -80 53 -111 83 -49 47 -58 62
-64 103 -9 60 13 108 65 140 31 19 49 22 150 22 110 0 118 -1 183 -33 37 -18
72 -30 77 -27 16 10 12 111 -5 125 -13 11 -91 23 -215 33 -25 3 -82 0 -126 -4z"/>
<path d="M2860 3800 c-142 -23 -219 -118 -223 -277 -3 -100 30 -163 120 -229
38 -28 82 -57 98 -65 246 -122 338 -201 337 -289 -1 -59 -18 -102 -55 -138
-50 -48 -98 -64 -201 -65 -97 0 -193 24 -248 64 -48 34 -58 27 -58 -46 0 -60
2 -65 28 -79 31 -16 178 -36 266 -36 80 0 179 18 235 43 57 25 145 114 162
164 8 21 14 76 14 123 0 70 -4 94 -24 133 -46 93 -89 128 -271 221 -198 101
-260 160 -260 250 0 44 4 53 43 91 38 38 49 43 114 53 86 12 177 -3 260 -44
29 -14 57 -23 62 -19 12 7 12 106 1 125 -15 24 -289 38 -400 20z"/>
<path d="M3640 3790 c-12 -8 -14 -84 -12 -561 2 -426 5 -555 15 -561 6 -4 37
-8 68 -8 44 0 58 4 63 17 8 20 7 1089 -1 1109 -6 16 -109 19 -133 4z"/>
</g>
</svg>
