<?xml version="1.0" standalone="no"?>
<!DOCTYPE svg PUBLIC "-//W3C//DTD SVG 20010904//EN"
 "http://www.w3.org/TR/2001/REC-SVG-20010904/DTD/svg10.dtd">
<svg version="1.0" xmlns="http://www.w3.org/2000/svg"
 width="200.000000pt" height="200.000000pt" viewBox="0 0 200.000000 200.000000"
 preserveAspectRatio="xMidYMid meet">
<metadata>
Created by potrace 1.10, written by Peter Selinger 2001-2011
</metadata>
<g transform="translate(0.000000,200.000000) scale(0.050000,-0.050000)"
fill="#000000" stroke="none">
<path d="M1750 3759 c-1296 -202 -1937 -1700 -1188 -2779 950 -1370 3103 -754
3192 914 60 1124 -918 2034 -2004 1865z m606 -51 c1112 -228 1698 -1464 1185
-2498 -642 -1296 -2502 -1264 -3110 53 -596 1292 537 2731 1925 2445z"/>
<path d="M1695 3688 c-1867 -337 -1824 -3096 53 -3388 263 -41 207 -8 -98 57
-1452 311 -1795 2243 -543 3063 439 288 1083 340 1555 125 1508 -684 1262
-2870 -361 -3203 -207 -42 -267 -74 -101 -53 1164 148 1841 1403 1330 2463
-333 690 -1082 1072 -1835 936z"/>
<path d="M1947 3590 c-7 -18 -3 -42 9 -54 30 -30 88 -3 80 39 -9 46 -73 57
-89 15z"/>
<path d="M1655 3555 c-14 -37 5 -75 37 -75 22 0 28 -42 28 -210 0 -193 17
-258 48 -178 18 46 15 92 -5 80 -9 -6 -18 16 -19 48 -1 35 8 57 22 55 14 -3
27 23 30 60 4 36 15 61 24 55 21 -13 64 59 46 77 -7 7 3 13 22 13 19 0 29 -8
23 -19 -6 -10 -3 -23 7 -30 10 -6 23 2 29 17 14 39 -26 51 -126 38 -65 -9 -83
-5 -80 16 8 58 -2 78 -39 78 -21 0 -42 -11 -47 -25z"/>
<path d="M2223 3537 c5 -31 20 -47 47 -47 60 0 54 78 -7 87 -38 5 -45 -2 -40
-40z"/>
<path d="M1463 3477 c5 -31 20 -47 47 -47 60 0 54 78 -7 87 -38 5 -45 -2 -40
-40z"/>
<path d="M2427 3490 c-7 -18 -3 -42 9 -54 30 -30 88 -3 80 39 -9 46 -73 57
-89 15z"/>
<path d="M2046 3487 c-13 -5 -19 -22 -13 -38 6 -16 19 -24 29 -18 10 7 13 20
7 30 -6 11 4 19 23 19 19 0 29 -6 22 -13 -18 -18 25 -90 46 -77 9 6 17 -16 16
-49 -1 -33 -10 -55 -19 -49 -20 12 -23 -34 -5 -80 7 -18 20 -27 29 -21 10 6
12 23 7 38 -7 16 6 33 31 41 46 14 57 187 12 201 -51 15 -163 25 -185 16z"/>
<path d="M1943 3368 c-50 -103 -48 -121 8 -80 32 23 44 23 83 -3 57 -37 57
-19 -1 91 l-44 85 -46 -93z"/>
<path d="M1294 3427 c-24 -23 -16 -82 13 -93 40 -15 78 16 70 58 -8 39 -58 60
-83 35z"/>
<path d="M2607 3389 c-7 -18 -3 -41 9 -53 31 -31 84 -4 84 43 0 50 -75 57 -93
10z"/>
<path d="M1411 3308 c-73 -87 -75 -126 -7 -128 8 0 9 -15 2 -33 -8 -22 -5 -29
9 -20 14 8 18 43 10 87 -10 66 -8 70 19 45 17 -16 27 -40 21 -54 -5 -14 1 -25
14 -25 12 0 21 20 19 45 -7 77 1 115 25 115 14 0 18 -25 11 -70 -12 -74 15
-116 32 -50 9 37 57 59 52 25 -7 -41 5 -65 32 -65 51 0 33 45 -54 134 -103
105 -91 105 -185 -6z"/>
<path d="M2365 3301 c-97 -111 -103 -126 -40 -103 25 9 45 26 45 38 0 48 29
45 42 -5 9 -40 19 -48 35 -32 17 17 16 27 -1 38 -27 16 -13 103 16 103 19 0
26 -41 21 -110 -2 -22 15 -52 37 -65 24 -15 40 -17 40 -5 0 11 18 20 40 20 61
0 48 40 -44 134 -102 104 -88 105 -191 -13z"/>
<path d="M1033 3307 c-29 -30 -12 -111 26 -121 23 -6 34 -21 27 -38 -12 -33
-5 -34 63 -8 56 21 68 81 23 118 -21 18 -35 16 -59 -7 -19 -20 -35 -24 -43
-11 -7 11 -4 20 7 20 10 0 24 14 30 30 12 31 -47 44 -74 17z"/>
<path d="M1895 3191 c-72 -74 -155 -224 -155 -280 0 -22 -13 -31 -35 -27 -30
6 -34 27 -31 146 2 77 -1 124 -7 105 -5 -19 -20 -35 -32 -35 -16 0 -16 -7 1
-24 13 -13 24 -33 24 -43 0 -11 -31 16 -68 59 -58 65 -75 74 -105 56 -49 -29
-126 -166 -127 -224 0 -33 -10 -45 -34 -40 -28 5 -33 27 -28 131 6 149 0 151
-136 35 -815 -696 -588 -1991 408 -2330 91 -31 101 -40 112 -108 17 -105 112
-229 222 -290 l95 -52 94 50 c121 64 211 177 226 283 10 76 17 85 92 106 880
260 1213 1410 623 2152 -134 169 -393 355 -366 264 29 -100 21 -235 -15 -242
-29 -5 -35 4 -30 44 8 58 -106 233 -151 233 -39 0 -129 -111 -144 -177 -20
-92 -26 -103 -57 -103 -18 0 -31 18 -31 42 0 58 -129 266 -189 306 -68 44 -80
42 -156 -37z m187 -171 c23 0 38 -10 34 -23 -14 -40 -138 -56 -204 -27 -30 13
-35 11 -21 -12 14 -24 12 -24 -17 -1 -49 40 -42 69 15 58 41 -7 53 2 71 53
l22 62 30 -55 c17 -33 46 -55 70 -55z m58 -169 c0 -6 -21 -7 -46 0 -37 9 -52
0 -70 -41 -25 -53 -64 -52 -64 3 0 19 -17 29 -45 26 -25 -2 -52 -2 -60 -1 -27
4 48 102 77 102 39 0 35 -34 -7 -58 -19 -12 -27 -21 -17 -21 11 -1 35 14 55
32 35 31 37 30 39 -15 0 -26 6 -37 11 -23 6 14 25 25 44 26 28 0 28 3 -4 22
-29 17 -32 25 -12 38 23 14 99 -54 99 -90z m-604 -64 c-4 -21 -27 -34 -61 -36
-65 -3 -64 -6 -24 71 33 65 100 38 85 -35z m893 -8 c-29 -48 -26 -97 6 -84 22
8 27 4 16 -13 -25 -40 -98 -60 -130 -35 -23 18 -25 17 -12 -5 11 -18 -3 -14
-35 10 -47 35 -49 40 -18 62 19 14 47 36 63 50 57 51 139 62 110 15z m417 18
c77 -41 138 -197 78 -197 -39 0 -61 47 -43 93 10 26 10 47 1 47 -10 0 -24 -20
-32 -45 -12 -38 -16 -40 -24 -10 -12 47 -39 44 -52 -5 -8 -32 0 -40 37 -40 55
0 118 -80 139 -177 18 -83 -25 -80 -66 4 -15 29 -49 78 -78 108 -65 71 -86
126 -63 170 12 23 11 35 -2 35 -12 0 -21 -12 -21 -27 0 -42 -67 -93 -98 -75
-100 63 115 177 224 119z m-1099 -88 c-16 -40 13 -36 45 6 30 39 38 11 10 -33
-12 -18 -5 -52 20 -96 39 -69 35 -115 -9 -100 -13 4 -32 -4 -43 -17 -11 -14
-42 -31 -70 -38 -42 -11 -44 -9 -15 9 43 27 47 63 5 47 -37 -14 -40 34 -5 72
20 21 20 24 0 13 -16 -9 -25 -2 -25 20 0 19 -15 51 -33 71 -40 44 7 55 51 12
20 -20 25 -19 21 5 -10 77 0 105 30 81 16 -13 24 -37 18 -52z m-498 -35 c-6
-16 -38 -35 -71 -41 -38 -8 -65 -30 -78 -63 -11 -28 -34 -57 -52 -64 -28 -10
-26 -16 13 -37 l46 -24 -68 -35 c-38 -19 -89 -53 -114 -76 -67 -61 -54 -5 15
66 33 34 60 74 60 89 0 16 18 34 40 41 22 7 40 30 40 52 0 22 13 44 30 51 20
7 26 27 18 59 -8 29 -4 48 10 48 20 0 30 -27 24 -65 -1 -8 7 -15 18 -15 11 0
20 17 20 37 0 20 6 43 14 50 20 20 48 -38 35 -73z m1843 57 c20 -20 22 -32 6
-42 -15 -10 -18 -49 -9 -117 8 -56 11 -169 8 -252 -10 -284 -7 -470 9 -515 16
-43 12 -45 -77 -45 l-93 0 47 38 c45 37 47 51 51 325 3 158 11 347 18 419 9
87 6 137 -9 146 -12 7 -16 26 -10 43 14 36 23 36 59 0z m-952 -109 c0 -16 -16
-47 -35 -69 -19 -22 -24 -33 -10 -25 47 27 25 -8 -55 -88 -74 -74 -93 -134
-55 -172 16 -16 -21 -113 -51 -132 -38 -24 -54 -19 -41 14 6 17 2 30 -9 30
-12 0 -25 16 -30 35 -6 23 -10 16 -12 -18 -1 -28 11 -83 27 -121 53 -126 83
-600 41 -625 -20 -12 -50 -37 -67 -56 -34 -38 -114 -50 -92 -13 19 30 14 381
-5 401 -9 8 -13 -75 -9 -185 5 -136 -1 -209 -18 -229 -43 -52 -53 -31 -36 76
10 58 12 177 4 265 -22 279 -42 251 -32 -45 10 -255 7 -285 -22 -285 -22 0
-33 -17 -33 -50 0 -36 -11 -50 -39 -50 -21 0 -44 -9 -51 -20 -7 -11 -31 -20
-55 -20 -35 0 -30 10 37 69 43 38 69 70 57 70 -45 2 -20 381 38 559 40 123 52
198 47 284 -7 125 -25 168 -45 106 -7 -21 -18 -51 -24 -68 -6 -16 -9 -46 -7
-65 3 -19 -5 -35 -17 -35 -11 0 -21 -16 -20 -35 0 -33 1 -33 21 0 33 57 58 20
27 -40 -21 -41 -22 -57 -4 -68 17 -10 13 -19 -12 -28 -93 -36 -102 157 -15
327 38 75 47 80 141 87 106 7 141 -14 46 -29 l-55 -8 53 -3 c28 -2 63 11 77
27 14 17 40 30 58 30 18 0 44 19 59 43 22 35 30 37 45 15 14 -23 17 -23 18 3
0 18 23 52 51 76 28 24 45 53 39 64 -7 10 -3 19 9 19 11 0 21 16 21 35 1 44
39 -8 40 -53z m-823 20 c-26 -21 -54 -34 -63 -28 -26 16 27 66 71 66 37 0 36
-3 -8 -38z m1351 -20 c22 -24 50 -34 77 -27 33 9 39 4 29 -22 -8 -21 -3 -33
17 -33 35 0 36 -10 7 -64 -21 -40 -23 -39 -60 17 -21 31 -38 46 -38 32 0 -14
-9 -25 -19 -25 -11 0 -15 13 -9 28 6 17 -7 38 -30 51 -23 12 -42 36 -42 52 0
40 27 36 68 -9z m-1416 -26 c8 -13 4 -27 -9 -32 -13 -4 -18 -16 -11 -27 6 -10
1 -31 -12 -47 -13 -16 -19 -35 -14 -44 6 -9 -11 -16 -38 -16 -44 0 -47 6 -35
70 19 109 81 158 119 96z m1379 -31 c11 -8 23 -46 26 -84 5 -77 23 -112 23
-44 0 24 9 43 20 43 23 0 25 -23 8 -68 -16 -42 -61 -41 -86 3 -12 19 -21 26
-21 16 -1 -10 20 -42 47 -70 75 -81 92 -247 24 -238 -27 4 -50 -2 -50 -13 0
-11 20 -17 44 -13 36 5 39 2 19 -20 -21 -21 -34 -21 -65 -1 -22 13 -40 20 -40
16 0 -5 -5 -25 -12 -45 -9 -28 -7 -30 8 -9 33 46 61 6 52 -72 -11 -91 -12 -91
-70 -69 -27 10 -84 12 -128 5 -86 -15 -230 39 -230 86 0 13 -13 42 -30 63 -26
35 -26 31 0 -35 36 -90 36 -91 5 -102 -14 -4 -9 -6 10 -3 45 7 46 -23 2 -40
-91 -34 -126 262 -38 320 59 39 65 79 17 106 -58 32 -3 123 74 123 55 0 64
-11 59 -71 0 -6 17 -33 39 -61 55 -70 36 -108 -49 -97 -37 5 -72 0 -79 -11 -7
-11 0 -15 16 -9 15 6 37 -9 51 -35 l23 -46 -11 50 c-11 48 -10 49 20 11 34
-43 42 -151 11 -151 -11 0 -20 14 -20 30 0 17 -9 30 -20 30 -47 0 -14 -55 51
-86 39 -19 75 -34 80 -34 18 0 9 78 -11 90 -39 24 -19 50 39 50 l59 0 -29 -69
c-38 -91 -38 -91 21 -64 34 16 50 39 50 74 0 28 11 62 24 75 13 13 26 39 29
59 4 32 2 32 -23 -3 -16 -21 -41 -32 -59 -25 -42 16 -39 40 9 83 22 20 40 45
40 57 0 11 14 36 32 55 29 33 29 34 -14 23 -35 -9 -42 -5 -32 21 9 23 3 29
-19 20 -17 -6 -39 1 -49 16 -24 38 -23 103 2 88 11 -7 14 1 8 19 -13 34 22 43
42 11 7 -11 32 -19 56 -18 42 1 37 4 -42 29 -15 5 -21 18 -14 29 14 23 71 26
101 5z m-1271 -64 c0 -32 9 -64 20 -71 27 -17 26 -150 -1 -150 -12 0 -19 -28
-15 -65 4 -41 16 -63 32 -60 15 4 21 -3 14 -15 -7 -11 -40 -20 -73 -20 -49 0
-59 -7 -49 -33 45 -117 38 -641 -9 -674 -72 -50 -92 -40 -32 16 60 55 62 68
30 140 -19 40 -18 62 4 103 24 46 24 54 -6 71 -28 15 -32 38 -23 133 6 63 2
154 -9 203 -12 53 -13 99 -3 111 18 21 -3 75 -27 72 -7 -1 -13 3 -12 9 0 6
-18 35 -41 64 -40 51 -41 54 -6 67 58 21 107 -17 102 -78 -2 -31 3 -66 11 -79
8 -13 5 -42 -7 -65 -24 -44 -2 -54 36 -16 29 29 33 144 4 126 -12 -7 -20 16
-20 59 0 54 8 71 35 71 20 0 26 7 15 15 -35 26 -35 125 -1 125 21 0 31 -19 31
-59z m-161 -270 c44 -28 -5 -71 -81 -71 -43 0 -78 -7 -78 -16 0 -9 34 -14 75
-11 72 5 73 4 15 -12 l-60 -16 54 -3 c50 -2 96 -49 96 -99 0 -26 -194 -17
-221 10 -13 13 -9 45 11 94 23 56 26 84 9 115 -16 30 -15 49 3 74 14 19 -7 3
-47 -36 -71 -68 -79 -260 -12 -260 10 0 17 -13 17 -30 0 -23 11 -25 50 -10 28
11 84 12 125 4 l74 -16 -67 -27 c-52 -22 -75 -23 -104 -4 -56 35 -74 28 -21
-9 26 -19 64 -27 91 -20 77 19 118 -158 79 -341 -36 -171 -22 -239 60 -288
l63 -39 -83 0 c-46 0 -129 10 -185 23 l-101 24 10 121 c7 86 4 110 -9 82 -11
-22 -20 -28 -21 -14 0 14 17 63 39 109 58 121 38 318 -43 411 -31 36 -57 80
-57 98 0 18 -6 27 -13 20 -7 -7 -1 -53 13 -103 24 -85 22 -93 -20 -127 -56
-45 -41 -114 28 -132 40 -10 47 -25 48 -92 1 -45 -7 -76 -16 -70 -10 6 -13 27
-7 46 7 24 -2 20 -31 -13 -67 -75 -43 -152 58 -189 20 -7 15 -11 -15 -12 -72
-3 -111 79 -95 197 12 88 9 101 -21 101 -28 0 -32 13 -22 75 7 41 13 167 13
279 0 188 3 206 42 227 35 19 40 18 27 -4 -8 -15 11 -3 43 26 32 29 85 66 118
83 l60 31 45 -87 c24 -48 53 -93 64 -99z m1741 139 c32 -29 38 -66 38 -243 1
-115 5 -216 9 -223 38 -64 -30 -107 -157 -101 -98 5 -128 1 -121 -18 5 -14 -4
-25 -22 -25 -20 0 -27 11 -20 30 7 17 4 30 -5 30 -9 0 -15 -63 -14 -140 l2
-140 220 4 220 4 -205 7 -205 6 0 78 0 78 203 7 c123 4 204 -2 208 -14 3 -11
10 -58 15 -105 l10 -85 -234 0 c-228 0 -234 -1 -237 -45 -1 -25 -8 -74 -15
-108 -6 -36 -2 -70 9 -77 18 -11 30 61 27 164 -1 16 62 25 206 30 l208 6 0
-71 c0 -134 -38 -158 -246 -163 l-184 -4 180 -12 180 -12 -184 -4 c-168 -4
-184 -1 -196 36 -7 22 -25 40 -41 40 -22 0 -24 11 -9 51 11 29 20 78 20 110 0
33 7 59 15 59 8 0 11 56 6 125 l-8 125 -24 -204 c-20 -176 -30 -211 -71 -245
-90 -75 -173 -34 -145 72 l15 57 14 -60 c12 -55 15 -56 28 -17 7 23 33 52 57
63 24 12 32 22 18 23 -28 1 -37 262 -10 289 8 9 15 39 15 67 0 28 11 55 23 59
14 5 21 -7 17 -28 -18 -88 -26 -353 -10 -316 9 22 18 97 19 168 1 107 9 134
47 170 58 52 170 95 185 70 6 -10 21 -18 33 -18 12 0 6 18 -14 40 -35 39 -35
40 8 40 45 0 142 82 142 120 0 12 -22 -3 -48 -34 -64 -74 -221 -88 -200 -18
16 51 8 44 67 62 49 15 49 15 15 -37 -19 -29 -26 -53 -15 -53 33 0 58 67 69
182 10 101 5 97 -20 -22 -11 -48 -12 -49 -40 -11 -37 50 -36 140 2 171 16 13
25 31 20 39 -17 29 94 4 130 -29z m-640 -511 c0 -23 -14 -68 -31 -100 -16 -32
-22 -59 -13 -59 10 0 28 20 40 45 28 59 32 -1 4 -74 -10 -28 -11 -51 -2 -51
10 0 22 18 28 40 11 44 29 49 72 22 32 -20 16 -144 -24 -186 -13 -14 -25 -55
-27 -92 -3 -72 -41 -130 -71 -112 -12 8 -11 21 2 34 12 12 22 30 22 39 0 10
-21 -7 -47 -37 -55 -64 -79 -55 -134 53 -34 67 -25 117 11 59 18 -29 90 -64
90 -44 0 10 -20 28 -45 40 -25 12 -33 22 -19 23 20 1 19 9 -5 33 -19 19 -27
48 -20 71 7 22 -2 61 -21 90 -45 68 -24 214 28 198 19 -6 52 2 73 18 55 42 89
38 89 -10z m-197 -494 l36 -65 -57 0 c-31 0 -83 -3 -114 -7 -32 -4 -46 -4 -31
1 26 9 24 36 -7 112 -31 74 130 36 173 -41z m-184 -2 c-2 -18 -108 -100 -151
-117 -25 -9 -14 13 32 68 57 69 123 95 119 49z m-299 -383 c0 -208 -2 -210
-166 -127 -141 71 -217 126 -203 148 6 10 -1 14 -15 8 -15 -5 -62 26 -106 71
l-78 80 284 0 284 0 0 -180z m720 20 l0 -160 -340 0 -340 0 0 160 0 160 340 0
340 0 0 -160z m520 70 c-84 -86 -139 -119 -108 -65 8 15 7 18 -4 8 -10 -9 -18
-26 -18 -38 0 -25 -265 -174 -310 -175 -25 0 -29 30 -24 180 l7 180 273 0 272
0 -88 -90z m-1068 -283 c-13 -32 40 -74 69 -56 12 7 18 29 13 49 -7 26 3 35
38 35 26 0 43 -8 37 -17 -6 -9 -1 -36 12 -59 25 -48 85 2 65 54 -6 15 7 24 33
22 24 -2 38 -14 33 -28 -13 -32 40 -74 69 -56 12 7 18 29 13 49 -7 26 3 35 36
35 34 0 43 -9 35 -37 -6 -23 3 -42 23 -50 41 -16 41 -80 0 -96 -24 -9 -29 -27
-19 -66 11 -44 9 -49 -15 -29 -44 36 -84 -20 -55 -76 23 -42 -5 -60 -30 -20
-22 36 -72 -22 -57 -66 8 -26 5 -35 -9 -27 -12 7 -39 2 -61 -11 -33 -21 -47
-19 -81 12 -22 20 -42 29 -43 19 -1 -10 -8 5 -16 32 -9 31 -28 49 -49 47 -19
-2 -31 7 -27 20 14 38 -24 92 -57 80 -21 -8 -26 -2 -17 21 7 18 1 46 -12 62
-15 18 -17 30 -4 30 11 0 25 -11 30 -25 7 -19 17 -17 42 6 29 27 29 35 3 70
-28 39 -29 39 -59 -1 -27 -35 -31 -35 -31 -6 -1 18 8 39 18 45 11 7 14 25 8
41 -7 19 3 27 32 25 24 -2 38 -14 33 -28z"/>
<path d="M1855 1770 c10 -315 20 -357 21 -80 0 121 -6 243 -14 270 -8 28 -11
-58 -7 -190z"/>
<path d="M1072 1747 c35 -60 35 -68 2 -172 -45 -142 -43 -170 11 -181 39 -7
37 -9 -10 -11 -66 -4 -71 -42 -14 -94 56 -51 85 -8 67 101 -16 98 -16 117 2
230 12 81 9 95 -40 140 l-54 50 36 -63z"/>
<path d="M1369 1089 c52 -27 61 -27 89 0 27 28 22 31 -59 31 l-89 0 59 -31z"/>
<path d="M1240 1080 c0 -26 84 -80 124 -80 39 0 48 30 15 50 -42 26 -139 47
-139 30z"/>
<path d="M1536 1039 c-22 -24 -27 -42 -14 -50 12 -7 29 -32 38 -56 14 -34 18
-22 19 52 0 52 -1 94 -4 93 -3 -1 -20 -18 -39 -39z"/>
<path d="M1310 969 c22 -18 75 -50 118 -73 l78 -40 -48 61 c-26 33 -57 58 -68
55 -11 -4 -42 2 -70 11 -48 17 -49 16 -10 -14z"/>
<path d="M1475 936 c24 -24 50 -38 57 -30 20 19 -31 74 -69 74 -26 0 -23 -9
12 -44z"/>
<path d="M2209 1041 c-15 -65 -16 -66 -33 -22 -23 64 -32 46 -21 -44 12 -94
125 -118 125 -27 0 27 6 63 12 81 9 22 4 28 -18 20 -19 -8 -34 2 -40 25 -6 25
-14 15 -25 -33z"/>
<path d="M1995 1068 c-8 -8 -16 -33 -16 -56 -1 -39 -3 -38 -21 6 -25 64 -34
48 -23 -43 8 -66 16 -75 65 -75 49 0 57 9 65 75 11 88 -1 114 -20 44 l-13 -49
-11 57 c-6 31 -18 50 -26 41z"/>
<path d="M1708 1028 c7 -17 12 -53 12 -80 0 -91 113 -67 125 27 11 91 2 107
-23 43 -19 -48 -19 -48 -21 -3 0 25 -10 45 -21 45 -11 0 -21 -20 -21 -45 l-2
-45 -18 45 c-10 25 -23 45 -30 45 -8 0 -8 -14 -1 -32z"/>
<path d="M2548 1089 c28 -28 37 -28 86 -1 l56 30 -86 1 c-78 1 -84 -2 -56 -30z"/>
<path d="M2460 1081 c0 -22 79 -69 93 -55 12 12 -50 74 -74 74 -11 0 -19 -9
-19 -19z"/>
<path d="M2707 1085 c-24 -4 -59 -25 -78 -46 -50 -55 26 -56 94 -1 53 43 48
57 -16 47z"/>
<path d="M2420 951 c0 -114 4 -128 34 -117 21 8 25 16 10 21 -32 11 -30 84 3
123 23 27 21 37 -10 67 -36 34 -37 31 -37 -94z"/>
<path d="M2484 956 c-33 -33 -30 -56 7 -56 17 0 25 -10 18 -21 -7 -12 33 2 89
30 119 60 122 64 43 67 -42 1 -63 -10 -71 -37 -7 -22 -21 -39 -32 -39 -12 0
-11 16 2 40 25 46 -15 57 -56 16z"/>
<path d="M1881 711 c-41 -49 12 -107 57 -62 28 28 28 34 0 62 -28 28 -34 28
-57 0z"/>
<path d="M2029 698 c-16 -52 21 -96 53 -64 24 24 7 106 -22 106 -10 0 -23 -19
-31 -42z"/>
<path d="M2181 711 c-41 -49 12 -107 57 -62 28 28 28 34 0 62 -28 28 -34 28
-57 0z"/>
<path d="M1807 610 c-17 -45 34 -103 57 -63 18 33 1 93 -27 93 -10 0 -23 -14
-30 -30z"/>
<path d="M1951 606 c-19 -51 35 -97 68 -57 21 25 21 37 1 61 -32 39 -53 38
-69 -4z"/>
<path d="M2103 613 c-17 -19 -16 -36 3 -61 32 -44 83 2 62 55 -15 40 -36 42
-65 6z"/>
<path d="M1883 526 c-26 -49 19 -116 54 -81 31 31 29 65 -6 94 -22 19 -32 16
-48 -13z"/>
<path d="M2027 509 c-17 -44 25 -85 56 -54 25 25 9 85 -23 85 -12 0 -27 -14
-33 -31z"/>
<path d="M1961 431 c-41 -49 12 -107 57 -62 28 28 28 34 0 62 -28 28 -34 28
-57 0z"/>
<path d="M2238 3235 c-2 -14 -1 -37 1 -52 2 -15 -6 -21 -18 -14 -25 16 -28
-47 -3 -86 23 -37 36 -8 39 92 2 75 -13 124 -19 60z"/>
<path d="M2926 3181 c-6 -22 -23 -41 -39 -41 -37 0 1 -77 46 -94 53 -20 105
50 61 83 -23 17 -29 32 -15 40 11 7 21 4 21 -8 0 -11 14 -21 31 -21 57 0 23
70 -38 76 -43 5 -59 -3 -67 -35z"/>
<path d="M840 3152 c0 -30 30 -74 82 -121 105 -95 129 -74 31 26 -50 51 -70
87 -62 110 9 22 3 33 -19 33 -20 0 -32 -17 -32 -48z"/>
<path d="M920 3179 c0 -27 103 -118 135 -118 37 -1 32 9 -37 77 -63 64 -98 78
-98 41z"/>
<path d="M2351 3146 c-11 -29 -16 -30 -31 -6 -24 39 -36 20 -22 -37 12 -46 12
-46 58 15 25 34 37 62 27 62 -10 0 -25 -15 -32 -34z"/>
<path d="M2620 3132 c0 -16 -9 -32 -21 -36 -12 -4 -9 -22 10 -46 28 -38 30
-36 30 35 1 41 -3 75 -9 75 -5 0 -10 -13 -10 -28z"/>
<path d="M749 3006 c-34 -52 -34 -55 1 -75 20 -12 53 -37 74 -56 35 -34 38
-34 50 -2 7 19 4 38 -8 42 -45 15 -95 63 -81 77 9 8 42 -4 74 -28 42 -31 63
-37 73 -20 9 13 3 28 -11 32 -14 5 -43 26 -63 47 -50 49 -67 47 -109 -17z"/>
<path d="M3180 2980 c0 -11 -27 -37 -60 -57 l-60 -37 50 -54 50 -54 70 53 c69
53 89 89 49 89 -11 0 -40 -18 -64 -40 -23 -22 -50 -40 -59 -40 -32 0 -15 38
34 76 56 44 65 84 20 84 -16 0 -30 -9 -30 -20z"/>
<path d="M654 2856 c13 -70 123 -128 163 -87 25 24 26 36 7 55 -19 19 -24 19
-24 0 0 -43 -37 -25 -44 21 -4 32 -22 47 -58 51 -46 5 -52 0 -44 -40z"/>
<path d="M3246 2793 c-36 -24 -65 -54 -65 -68 -1 -35 15 -31 73 15 28 22 59
35 68 29 33 -21 18 -44 -42 -69 -33 -14 -60 -38 -60 -54 0 -16 7 -26 15 -21 8
4 44 20 79 35 69 30 101 96 54 113 -15 6 -28 24 -28 39 0 37 -17 33 -94 -19z"/>
<path d="M600 2754 c0 -14 29 -36 64 -49 49 -19 59 -30 41 -48 -17 -17 -35
-15 -71 8 -56 37 -86 24 -104 -48 -11 -43 -5 -54 33 -63 26 -6 67 -17 92 -25
28 -8 45 -5 45 9 0 12 -12 22 -26 22 -34 0 -107 53 -93 68 6 6 36 -2 66 -18
52 -27 56 -26 73 21 11 27 28 49 39 49 11 0 14 14 8 31 -7 17 -16 26 -22 21
-6 -6 -35 3 -67 19 -69 36 -78 36 -78 3z"/>
<path d="M3340 2628 c-27 -15 -58 -30 -69 -34 -10 -3 -12 -16 -5 -28 15 -24
174 45 174 76 0 25 -41 19 -100 -14z"/>
<path d="M3365 2545 c-112 -55 -72 -137 53 -112 54 10 105 87 58 87 -11 0 -15
14 -9 30 15 38 -19 36 -102 -5z m75 -44 c0 -23 -78 -49 -96 -32 -15 15 34 50
71 51 14 0 25 -8 25 -19z"/>
<path d="M484 2495 c-38 -46 122 -162 165 -119 16 16 13 100 -4 110 -47 28
-141 33 -161 9z"/>
<path d="M3395 2406 c-57 -9 -80 -88 -35 -116 11 -7 20 6 20 29 0 48 15 52 58
13 47 -42 121 11 83 57 -14 17 -36 30 -48 28 -13 -2 -48 -7 -78 -11z"/>
<path d="M409 2358 c-12 -19 5 -29 81 -46 33 -8 76 -19 95 -24 21 -7 35 0 35
17 0 30 -195 79 -211 53z"/>
<path d="M3489 2279 c-6 -10 -34 -19 -61 -19 -49 0 -87 -49 -58 -76 9 -8 19
-3 24 11 10 28 109 35 101 7 -5 -17 4 -22 43 -22 9 0 17 22 17 49 0 50 -44 84
-66 50z"/>
<path d="M424 2235 c-34 -41 17 -88 96 -89 80 0 106 26 78 78 -23 42 -142 50
-174 11z m156 -35 c0 -11 -22 -20 -49 -20 -27 0 -54 9 -61 20 -7 12 13 20 49
20 33 0 61 -9 61 -20z"/>
<path d="M3455 2145 c-110 -11 -91 -45 25 -45 115 0 138 -39 25 -42 -41 -2
-87 -1 -102 1 -15 2 -24 -7 -19 -21 13 -38 162 -30 211 12 l42 36 -47 37 c-25
20 -49 35 -53 34 -4 -2 -41 -7 -82 -12z"/>
<path d="M408 2091 c-20 -51 30 -91 114 -91 70 0 78 5 78 50 0 28 -9 50 -20
50 -11 0 -20 -9 -20 -20 0 -11 -22 -20 -50 -20 -27 0 -48 10 -45 23 8 36 -44
44 -57 8z"/>
<path d="M3400 1955 c0 -8 0 -22 0 -30 1 -8 28 -12 60 -8 44 4 60 -2 60 -25 0
-18 9 -32 20 -32 11 0 20 14 20 30 0 17 15 30 34 30 21 0 27 7 15 18 -24 23
-209 38 -209 17z"/>
<path d="M3390 1836 c-34 -93 -22 -121 56 -123 88 -3 158 51 118 91 -17 17
-26 14 -35 -11 -14 -36 -79 -45 -99 -13 -7 11 10 20 40 20 34 0 50 9 45 25
-11 35 -113 44 -125 11z"/>
<path d="M511 1782 c-6 -10 -6 -33 1 -50 8 -21 1 -32 -19 -32 -19 0 -27 11
-21 28 6 15 2 33 -9 40 -34 21 -45 -53 -12 -89 45 -50 115 -28 104 34 -5 26
-2 47 8 47 9 0 17 -17 17 -39 0 -58 34 -67 45 -12 14 73 -78 131 -114 73z"/>
<path d="M3349 1658 c-15 -48 6 -78 29 -42 19 31 82 10 82 -28 0 -15 9 -28 20
-28 11 0 20 9 20 20 0 11 15 20 33 20 30 0 30 4 -3 40 -19 21 -42 35 -51 29
-9 -5 -38 -1 -66 10 -43 16 -53 13 -64 -21z"/>
<path d="M580 1625 c-16 -6 -52 -19 -78 -29 -30 -11 -41 -25 -30 -36 21 -21
157 19 165 50 7 24 -17 30 -57 15z"/>
<path d="M3332 1565 c-20 -20 -13 -68 7 -55 11 6 47 -2 79 -19 47 -24 121 -10
79 16 -49 30 -156 68 -165 58z"/>
<path d="M627 1525 c-19 -30 -29 -31 -65 -10 -35 21 -42 20 -42 -5 0 -17 -14
-37 -32 -43 -22 -9 -25 -17 -8 -27 37 -23 221 45 215 78 -8 43 -42 46 -68 7z"/>
<path d="M3270 1440 c-29 -32 -33 -50 -17 -76 25 -39 99 -46 92 -9 -3 14 9 25
25 25 17 0 30 -9 30 -20 0 -11 -9 -20 -20 -20 -11 0 -20 -14 -20 -31 0 -25 8
-26 41 -8 54 29 44 99 -18 122 -38 14 -49 10 -57 -23 -6 -22 -19 -34 -29 -28
-11 7 -10 23 4 39 39 48 11 75 -31 29z"/>
<path d="M680 1442 c0 -10 -22 -23 -49 -30 -44 -11 -106 -84 -87 -102 21 -22
121 -24 165 -4 49 23 72 94 31 94 -11 0 -20 14 -20 30 0 17 -9 30 -20 30 -11
0 -20 -8 -20 -18z m40 -71 c0 -6 -27 -24 -60 -41 -61 -31 -80 -18 -36 26 23
23 96 34 96 15z"/>
<path d="M731 1255 c-25 -27 -41 -34 -46 -19 -5 13 -22 24 -38 24 -16 0 -24
-9 -16 -21 7 -11 2 -34 -12 -50 -39 -47 54 -37 106 11 23 22 54 40 68 40 15 0
21 13 14 30 -15 39 -28 36 -76 -15z"/>
<path d="M750 1150 c-47 -39 -54 -54 -35 -73 19 -19 25 -19 25 -2 0 13 27 38
60 55 61 31 81 71 35 69 -14 0 -52 -22 -85 -49z"/>
<path d="M3100 1171 c0 -16 31 -53 69 -81 41 -32 64 -64 58 -81 -7 -18 1 -29
21 -29 68 0 35 90 -58 156 -62 43 -90 54 -90 35z"/>
<path d="M795 1092 c-38 -28 -48 -92 -15 -92 11 0 20 -13 20 -30 0 -45 26 -37
89 29 89 93 9 172 -94 93z m105 -9 c0 -26 -79 -91 -93 -76 -8 7 3 31 23 53 38
42 70 52 70 23z"/>
<path d="M3039 1079 c-15 -9 -24 -20 -18 -23 5 -3 27 -16 49 -29 22 -12 38
-36 34 -53 -6 -38 28 -63 46 -33 10 14 22 14 42 -2 22 -19 28 -18 28 5 0 45
-148 156 -181 135z"/>
<path d="M904 954 c-65 -67 -78 -94 -47 -94 28 0 162 134 149 148 -22 21 -37
13 -102 -54z"/>
<path d="M2934 960 c-18 -22 -34 -45 -34 -51 0 -15 107 -108 125 -108 31 -2
14 44 -30 79 -25 20 -38 43 -30 52 8 8 37 -6 64 -31 26 -25 58 -39 70 -32 14
9 -1 36 -41 72 -74 70 -79 71 -124 19z"/>
<path d="M1038 959 c-1 -5 -4 -30 -6 -55 -6 -50 -52 -111 -52 -68 0 13 -13 24
-30 24 -17 0 -30 -18 -30 -40 0 -65 89 -52 141 22 41 57 42 64 12 94 -18 18
-34 28 -35 23z"/>
<path d="M2828 865 c-48 -32 -49 -97 -3 -140 50 -46 130 -66 139 -35 3 11 -13
23 -37 26 -48 7 -120 77 -100 98 7 7 34 -7 60 -31 62 -59 81 -33 28 39 -45 62
-53 65 -87 43z"/>
<path d="M1166 826 c-31 -11 -10 -66 26 -66 15 0 28 13 28 29 0 34 -21 49 -54
37z"/>
<path d="M2700 771 c0 -23 86 -151 102 -151 29 0 21 53 -12 80 -16 14 -30 37
-30 52 0 16 -13 28 -30 28 -16 0 -30 -4 -30 -9z"/>
<path d="M1296 736 c35 -35 29 -52 -21 -60 -32 -4 -47 -22 -51 -61 -10 -87 79
-67 128 29 33 65 12 116 -48 116 -25 0 -27 -5 -8 -24z"/>
<path d="M2610 720 c-7 -11 1 -34 17 -50 17 -17 36 -49 43 -71 11 -35 52 -49
54 -18 3 63 -90 177 -114 139z"/>
<path d="M1400 682 c0 -10 10 -22 21 -26 35 -11 -2 -76 -43 -76 -21 0 -38 -12
-38 -27 0 -78 84 -51 128 42 28 57 29 74 8 88 -35 22 -76 21 -76 -1z"/>
<path d="M1577 647 c-19 -5 -48 -45 -65 -88 -18 -44 -43 -77 -57 -74 -14 3
-25 -8 -25 -25 0 -16 17 -30 38 -30 21 0 44 14 51 30 8 17 33 68 56 115 23 47
40 84 38 83 -1 -2 -18 -7 -36 -11z"/>
</g>
</svg>
