<?xml version="1.0" standalone="no"?>
<!DOCTYPE svg PUBLIC "-//W3C//DTD SVG 20010904//EN"
 "http://www.w3.org/TR/2001/REC-SVG-20010904/DTD/svg10.dtd">
<svg version="1.0" xmlns="http://www.w3.org/2000/svg"
 width="200.000000pt" height="200.000000pt" viewBox="0 0 200.000000 200.000000"
 preserveAspectRatio="xMidYMid meet">
<metadata>
Created by potrace 1.10, written by Peter Selinger 2001-2011
</metadata>
<g transform="translate(0.000000,200.000000) scale(0.100000,-0.100000)"
fill="#000000" stroke="none">
<path d="M157 1693 c-17 -16 -6 -54 18 -63 14 -5 25 -13 25 -17 0 -5 21 -122
47 -260 l47 -253 46 0 c32 0 52 6 62 18 9 9 32 82 53 162 20 80 40 151 44 157
4 7 22 -44 40 -115 63 -240 55 -222 106 -222 39 0 75 18 75 38 0 14 89 484 92
486 29 12 44 28 46 50 l3 26 -99 0 c-75 0 -103 -4 -112 -15 -17 -21 -8 -50 18
-53 12 -2 22 -10 22 -18 0 -20 -41 -248 -45 -252 -3 -4 -27 71 -85 266 l-22
73 -36 -3 -36 -3 -47 -170 c-26 -93 -49 -163 -52 -155 -13 35 -47 242 -42 250
3 6 13 10 20 10 16 0 35 30 35 54 0 14 -17 16 -108 16 -60 0 -112 -3 -115 -7z"/>
<path d="M900 1651 c0 -67 7 -81 41 -81 22 0 29 5 29 20 0 18 7 20 75 20 41 0
75 -2 75 -5 0 -3 -52 -103 -115 -222 -82 -153 -115 -225 -115 -249 l0 -34 200
0 200 0 0 58 c0 62 -11 82 -46 82 -16 0 -24 -7 -26 -22 -3 -21 -9 -23 -85 -26
-46 -2 -83 0 -83 4 0 3 50 102 110 220 79 153 110 224 110 249 l0 35 -185 0
-185 0 0 -49z"/>
<path d="M1351 1686 c-20 -24 -9 -51 22 -54 l27 -3 0 -225 c0 -187 -2 -224
-14 -224 -23 0 -46 -29 -46 -57 l0 -25 173 4 c192 4 233 16 278 79 50 71 30
176 -41 217 l-29 17 31 32 c27 28 32 42 35 90 5 71 -16 110 -73 139 -53 26
-343 34 -363 10z m293 -97 c52 -41 17 -113 -61 -125 l-43 -7 0 77 0 76 39 0
c24 0 48 -8 65 -21z m-21 -220 c47 -13 69 -46 65 -95 -4 -46 -35 -71 -100 -80
l-48 -7 0 97 c0 108 0 108 83 85z"/>
<path d="M290 679 c-67 -27 -97 -102 -87 -216 8 -77 34 -125 80 -144 47 -20
193 -18 234 4 57 30 68 59 68 172 0 116 -14 153 -69 179 -39 18 -184 21 -226
5z"/>
<path d="M879 667 c-52 -35 -64 -68 -64 -172 1 -153 37 -189 190 -190 150 0
186 32 193 173 4 73 1 97 -16 134 -27 62 -64 78 -180 78 -76 0 -94 -3 -123
-23z"/>
<path d="M1513 679 c-17 -5 -41 -21 -52 -35 -52 -66 -50 -238 5 -295 34 -35
107 -54 185 -45 124 12 153 49 154 186 0 119 -13 152 -69 180 -46 22 -162 27
-223 9z"/>
</g>
</svg>
