<?xml version="1.0" standalone="no"?>
<!DOCTYPE svg PUBLIC "-//W3C//DTD SVG 20010904//EN"
 "http://www.w3.org/TR/2001/REC-SVG-20010904/DTD/svg10.dtd">
<svg version="1.0" xmlns="http://www.w3.org/2000/svg"
 width="300.000000pt" height="295.000000pt" viewBox="0 0 300.000000 295.000000"
 preserveAspectRatio="xMidYMid meet">
<metadata>
Created by potrace 1.10, written by Peter Selinger 2001-2011
</metadata>
<g transform="translate(0.000000,295.000000) scale(0.100000,-0.100000)"
fill="#000000" stroke="none">
<path d="M1295 2765 c-271 -49 -519 -178 -706 -364 -174 -174 -300 -409 -355
-661 -26 -118 -26 -390 0 -510 106 -492 469 -874 952 -1002 113 -30 128 -32
314 -32 214 -1 275 8 440 66 439 155 755 523 847 986 23 118 23 356 0 474 -54
273 -176 497 -375 690 -196 190 -424 307 -688 353 -105 18 -331 18 -429 0z
m467 -45 c239 -49 443 -158 624 -332 266 -257 394 -577 381 -953 -6 -165 -29
-276 -86 -420 -225 -562 -835 -889 -1426 -765 -507 106 -902 511 -990 1017
-19 111 -19 326 0 439 86 490 468 891 960 1008 167 40 360 42 537 6z"/>
<path d="M1420 2624 c-14 -2 -59 -9 -100 -15 -95 -14 -227 -57 -322 -105 -115
-58 -209 -128 -307 -229 -169 -175 -267 -365 -307 -600 -24 -133 -15 -338 20
-470 33 -126 116 -298 196 -403 99 -132 283 -292 307 -269 4 5 2 16 -5 25 -46
66 -66 120 -70 197 -4 68 -1 89 18 133 12 29 26 52 30 52 4 0 26 -20 48 -44
105 -114 120 -178 58 -246 -20 -22 -36 -47 -36 -55 0 -8 14 -29 30 -47 17 -17
30 -37 30 -44 0 -19 56 -62 92 -69 18 -4 41 -14 50 -22 17 -15 132 -27 213
-21 84 6 433 -1 493 -10 34 -5 65 -5 67 -1 3 4 -7 33 -22 65 -23 49 -28 73
-28 139 0 44 3 91 7 105 7 24 10 25 90 25 72 0 91 4 143 30 37 19 69 43 83 65
21 31 23 43 18 97 -6 55 -4 64 19 91 26 31 26 25 13 177 -3 28 1 31 62 56 95
38 96 42 16 230 -40 95 -66 170 -66 192 0 20 -12 63 -26 97 -23 52 -25 64 -14
84 9 17 9 29 1 44 -8 15 -7 23 4 32 23 19 18 31 -35 84 -48 46 -61 78 -40 91
6 3 10 20 10 36 0 22 -7 32 -26 41 -22 10 -32 9 -64 -9 -49 -29 -66 -15 -38
33 19 32 19 34 2 41 -9 3 -39 2 -66 -4 -41 -8 -48 -7 -43 4 3 8 5 30 5 49 0
29 12 46 75 113 41 43 75 80 75 83 0 3 -40 24 -89 47 -173 80 -424 126 -571
105z m351 -67 c99 -26 249 -83 249 -96 0 -4 -12 -18 -26 -32 -14 -13 -42 -45
-61 -70 l-35 -47 -47 21 c-77 34 -181 57 -287 64 -483 29 -901 -318 -965 -802
-29 -219 35 -468 165 -643 44 -60 46 -65 36 -100 -15 -57 -12 -126 9 -182 11
-27 16 -50 12 -50 -13 0 -156 153 -203 216 -87 119 -151 260 -189 419 -29 119
-31 321 -5 445 49 231 154 420 324 582 171 163 369 260 607 298 103 16 307 5
416 -23z m-81 -211 c36 -8 92 -24 124 -36 l59 -23 -23 -17 c-22 -16 -26 -16
-89 5 -104 35 -233 49 -343 35 -330 -40 -593 -255 -699 -570 -27 -79 -33 -115
-37 -216 -8 -194 31 -339 130 -490 44 -69 47 -77 34 -96 -14 -19 -15 -18 -50
28 -182 249 -218 608 -87 880 56 118 107 188 198 275 120 114 260 189 418 224
80 18 284 18 365 1z m220 -71 c0 -17 -34 -83 -53 -103 -32 -35 -107 -85 -107
-71 0 29 59 115 100 145 43 32 60 40 60 29z m-188 -34 l66 -21 -21 -40 c-21
-37 -22 -38 -25 -15 -2 15 -10 25 -20 25 -22 0 -110 -94 -118 -126 l-7 -27
-11 27 -11 27 -39 -33 c-21 -17 -46 -49 -56 -71 -10 -22 -21 -34 -24 -28 -4 6
-11 11 -16 11 -21 0 -75 -59 -96 -105 -13 -27 -23 -42 -23 -32 -1 26 -13 21
-53 -20 -42 -44 -58 -73 -58 -104 0 -21 -1 -21 -18 -6 -17 16 -20 16 -39 -6
-39 -43 -58 -81 -63 -131 -6 -51 -6 -51 -20 -23 -7 15 -16 27 -20 27 -4 0 -20
-19 -36 -42 -24 -34 -29 -51 -29 -101 1 -54 0 -58 -13 -38 -8 11 -21 21 -28
21 -20 0 -54 -74 -61 -131 -5 -40 -8 -47 -20 -38 -18 15 -23 9 -43 -51 l-17
-51 -21 49 c-91 211 -89 460 4 645 112 220 316 375 565 427 79 16 296 6 371
-19z m288 -42 c0 -22 -57 -67 -113 -87 -94 -35 -102 -26 -32 36 52 46 145 79
145 51z m-289 -100 c-3 -14 -30 -52 -58 -83 l-53 -58 0 37 c0 45 28 101 72
144 33 32 33 32 39 9 3 -13 3 -35 0 -49z m409 1 c-6 -11 -15 -22 -20 -25 -18
-11 -11 -23 47 -86 54 -58 56 -62 38 -75 -10 -8 -27 -14 -36 -14 -29 0 -194
-57 -256 -89 -124 -62 -216 -158 -349 -363 -35 -54 -66 -98 -69 -98 -3 0 -15
10 -26 21 -21 21 -21 22 -4 53 82 144 266 366 440 535 143 138 210 187 231
170 10 -8 11 -16 4 -29z m-142 12 c9 -6 -30 -52 -135 -158 -148 -149 -273
-301 -385 -466 -50 -75 -63 -88 -86 -88 -71 0 -121 -90 -101 -182 9 -38 8 -43
-21 -73 -16 -17 -30 -34 -30 -38 0 -15 25 -6 52 20 24 23 30 25 39 13 11 -18
-35 -61 -125 -118 -37 -23 -53 -38 -44 -40 22 -4 109 41 151 78 19 16 39 30
45 30 13 0 22 -35 22 -91 0 -26 7 -81 16 -123 8 -41 14 -90 12 -108 l-3 -33
-110 -6 c-127 -7 -165 -15 -165 -36 0 -11 5 -13 18 -7 9 4 72 9 140 12 118 4
124 5 139 29 16 23 15 34 -4 152 -11 69 -19 128 -18 129 2 2 12 1 22 -2 23 -7
72 -167 80 -261 4 -50 2 -64 -14 -84 -19 -24 -25 -25 -109 -21 -130 6 -233 6
-284 0 -41 -5 -45 -3 -42 15 19 124 14 141 -68 242 l-49 61 38 6 c47 7 99 42
128 85 27 39 29 61 8 61 -22 0 -19 8 15 37 51 43 78 113 44 113 -11 0 -4 9 17
23 35 23 79 81 79 103 0 7 -8 14 -17 16 -14 3 -10 8 15 21 40 22 86 89 78 114
-5 15 2 22 29 32 59 21 118 110 83 124 -8 3 -5 6 5 6 35 2 88 34 115 69 24 32
25 35 9 47 -15 11 -12 13 24 18 70 9 174 96 140 117 -9 5 -4 10 16 14 45 11
97 50 117 89 11 19 33 42 50 50 36 18 46 20 64 9z m-144 -64 c-41 -49 -83 -71
-153 -83 -54 -9 -53 4 3 50 48 39 82 53 135 54 l34 1 -19 -22z m-273 -72 c-3
-12 -27 -47 -53 -77 -48 -53 -48 -54 -48 -24 0 54 21 106 58 147 l37 41 6 -33
c4 -17 4 -42 0 -54z m-133 -91 c-4 -50 -9 -60 -47 -96 -23 -23 -45 -38 -48
-35 -14 14 20 119 49 152 42 48 51 44 46 -21z m271 38 c-38 -49 -115 -83 -183
-83 l-31 0 52 50 c50 49 53 50 113 50 58 0 61 -1 49 -17z m479 -65 c-5 -17
-88 -59 -100 -52 -20 13 -1 38 37 50 53 16 67 16 63 2z m-145 -46 c-10 -28
-36 -54 -70 -68 -43 -19 -43 -19 -43 20 0 33 3 36 53 54 57 22 69 20 60 -6z
m-733 -56 c0 -30 -9 -56 -30 -89 -33 -52 -47 -58 -56 -23 -8 34 12 100 42 136
32 37 44 31 44 -24z m235 45 c50 -20 -109 -109 -177 -99 -21 3 -20 5 17 47 22
24 49 47 60 51 25 11 74 11 100 1z m668 -63 c15 -40 27 -85 27 -99 0 -35 20
-89 82 -228 59 -130 58 -136 -18 -164 -27 -10 -58 -27 -69 -38 -17 -16 -18
-23 -8 -50 10 -26 9 -31 -5 -36 -9 -4 -32 -19 -50 -35 -18 -16 -45 -28 -60
-28 -21 0 -24 -2 -12 -10 20 -13 49 -3 88 31 18 16 36 29 41 29 17 0 20 -14 5
-31 -10 -11 -12 -19 -5 -24 33 -20 -6 -53 -40 -34 -11 6 -25 8 -32 6 -7 -3 3
-10 20 -17 28 -10 31 -15 23 -30 -6 -10 -10 -49 -10 -85 0 -62 -2 -69 -30 -95
-47 -44 -118 -63 -214 -58 -68 3 -94 10 -158 41 -79 38 -193 123 -262 195 -30
31 -38 46 -34 66 6 31 -7 34 -22 6 -21 -39 -47 -24 -106 65 -61 91 -74 139
-55 198 35 104 142 91 174 -22 12 -45 14 -46 52 -46 30 0 45 -6 61 -24 16 -18
32 -25 59 -25 45 0 71 27 81 82 4 20 22 62 40 92 38 62 45 129 18 168 -21 31
-9 59 31 72 19 6 49 28 67 49 21 24 49 42 77 50 25 7 57 26 72 42 18 19 37 29
56 29 16 0 38 7 49 15 10 8 24 15 29 15 6 0 23 -33 38 -72z m-323 3 c0 -40
-39 -94 -77 -105 -18 -5 -35 -17 -38 -27 -10 -31 -75 -38 -75 -9 0 17 65 83
124 127 32 24 60 43 62 43 2 0 4 -13 4 -29z m-701 -96 c12 -44 -1 -94 -36
-135 -34 -41 -47 -27 -41 47 3 40 11 70 27 91 29 41 38 40 50 -3z m235 27 c10
-17 -37 -71 -77 -90 -48 -22 -127 -37 -127 -23 0 15 98 100 122 105 43 9 63
14 70 15 4 0 9 -3 12 -7z m274 -164 c3 -31 -3 -42 -37 -76 -35 -34 -54 -72
-36 -72 3 0 30 25 61 56 52 51 56 58 50 90 -5 26 -4 34 8 34 22 0 36 -32 36
-79 0 -32 -7 -49 -34 -78 -25 -28 -35 -50 -38 -85 -6 -56 -21 -78 -53 -78 -44
0 -62 39 -63 136 -1 89 3 106 46 162 32 42 56 39 60 -10z m-629 -7 c12 -16 21
-40 21 -53 0 -29 -32 -99 -52 -116 -34 -28 -51 102 -22 164 20 41 27 42 53 5z
m241 19 c0 -5 -16 -27 -35 -49 -36 -40 -100 -66 -146 -59 -23 3 -23 4 16 47
22 24 54 50 70 57 36 16 95 18 95 4z m-80 -137 c0 -5 -9 -23 -20 -41 -23 -37
-81 -67 -148 -75 l-43 -5 17 26 c32 51 58 73 104 87 51 15 90 19 90 8z m335
-47 c-8 -45 -21 -66 -40 -66 -25 0 -25 33 0 77 31 52 49 48 40 -11z m-591 0
c27 -58 15 -129 -27 -164 -12 -10 -17 -6 -31 28 -20 50 -20 65 0 123 19 56 36
59 58 13z m176 -105 c0 -18 -47 -76 -76 -93 -17 -10 -52 -21 -79 -25 -45 -6
-48 -5 -41 13 16 42 53 85 86 98 38 16 110 21 110 7z m-261 -47 c31 -39 36
-87 16 -139 -9 -25 -20 -47 -25 -50 -5 -3 -21 15 -36 40 -22 39 -26 54 -20 91
6 49 21 84 36 84 5 0 18 -12 29 -26z m201 -90 c0 -11 -23 -50 -43 -72 -20 -22
-123 -59 -134 -49 -2 3 6 27 19 54 20 39 31 50 64 60 42 12 94 17 94 7z m455
-165 c76 -77 163 -140 251 -180 38 -18 70 -33 72 -35 2 -1 -4 -26 -12 -55 -21
-69 -20 -131 3 -198 l19 -53 -37 6 c-79 13 -201 17 -294 9 -54 -5 -100 -6
-102 -3 -12 19 13 62 45 78 46 23 59 65 35 115 -13 27 -14 40 -6 56 6 11 11
35 11 54 0 28 -32 169 -56 250 -9 30 10 18 71 -44z m-525 -313 c0 -25 -12 -46
-26 -46 -14 0 -20 41 -7 53 12 12 33 7 33 -7z m183 -69 c-4 -47 -1 -71 11 -95
16 -32 16 -32 -9 -32 -47 0 -65 31 -65 114 0 74 0 75 28 78 15 2 30 2 33 1 4
-2 4 -31 2 -66z m114 67 c16 -4 26 -18 33 -45 9 -34 42 -71 71 -81 17 -6 -10
-55 -38 -67 -30 -14 -78 -14 -103 -1 -51 27 -54 200 -3 200 10 0 28 -3 40 -6z
m-212 -77 c0 -54 -3 -67 -15 -67 -25 0 -40 15 -50 49 -15 52 12 95 55 87 5 -1
9 -32 10 -69z m398 52 c3 -12 2 -32 -3 -45 -8 -19 -17 -24 -43 -24 -36 0 -60
19 -71 57 -6 20 -3 22 41 26 26 2 53 4 59 5 7 1 14 -7 17 -19z"/>
<path d="M1520 2511 c0 -27 -3 -56 -6 -65 -4 -10 -1 -16 9 -16 9 0 16 15 21
46 9 69 8 84 -9 84 -11 0 -15 -12 -15 -49z"/>
<path d="M1330 2536 c0 -43 23 -116 37 -116 10 0 12 6 8 19 -3 10 -9 38 -13
62 -7 40 -32 68 -32 35z"/>
<path d="M1721 2518 c-5 -13 -16 -40 -25 -62 -19 -47 -19 -46 -2 -46 11 0 56
96 56 121 0 18 -21 8 -29 -13z"/>
<path d="M1140 2490 c0 -24 51 -110 65 -110 12 0 8 14 -15 60 -27 54 -50 77
-50 50z"/>
<path d="M1861 2439 c-22 -28 -41 -56 -41 -60 0 -20 21 -6 60 42 29 33 40 53
33 60 -7 7 -24 -7 -52 -42z"/>
<path d="M957 2414 c-9 -9 73 -104 90 -104 21 0 16 9 -29 59 -47 51 -51 54
-61 45z"/>
<path d="M795 2289 c-4 -5 -5 -12 -4 -13 31 -24 100 -66 108 -66 22 0 10 18
-31 46 -66 45 -66 45 -73 33z"/>
<path d="M656 2142 c-13 -13 -3 -21 55 -42 86 -32 100 -12 15 22 -36 14 -67
23 -70 20z"/>
<path d="M540 1957 c0 -11 17 -16 66 -22 36 -4 68 -4 72 0 10 10 -20 25 -49
25 -15 0 -41 3 -58 6 -24 5 -31 3 -31 -9z"/>
<path d="M538 1783 c-33 -2 -61 -10 -68 -18 -10 -13 -8 -15 17 -15 64 0 123
13 123 26 0 8 -3 13 -7 12 -5 -1 -34 -3 -65 -5z"/>
<path d="M488 1586 c-32 -11 -58 -27 -58 -34 0 -8 6 -12 13 -9 6 2 38 13 70
23 31 10 57 24 57 31 0 17 -12 15 -82 -11z"/>
<path d="M493 1393 c-29 -20 -53 -42 -53 -50 0 -18 1 -17 73 31 55 37 71 57
45 55 -7 0 -37 -16 -65 -36z"/>
<path d="M537 1206 c-45 -52 -57 -76 -39 -76 17 0 104 112 95 121 -6 6 -27
-12 -56 -45z"/>
<path d="M612 1019 c-21 -37 -31 -67 -27 -77 5 -13 15 0 40 48 19 36 34 71 35
78 1 26 -16 9 -48 -49z"/>
<path d="M713 861 c-13 -49 -17 -84 -11 -87 13 -8 13 -8 33 74 11 48 14 77 8
83 -7 7 -17 -17 -30 -70z"/>
<path d="M2011 1623 c-40 -26 -68 -49 -62 -51 6 -2 39 15 72 37 60 40 101 51
114 31 12 -20 26 -10 15 10 -18 33 -60 24 -139 -27z"/>
<path d="M2116 1595 c-3 -8 -14 -15 -25 -15 -10 0 -42 -16 -70 -35 -28 -20
-64 -41 -79 -47 -27 -11 -27 -11 18 -19 25 -4 72 -8 105 -8 l61 -1 -2 50 c-2
28 2 50 7 50 5 0 9 9 9 20 0 23 -15 27 -24 5z m-11 -75 c0 -23 -4 -25 -58 -28
-66 -3 -68 6 -9 38 47 25 67 22 67 -10z"/>
<path d="M1354 1329 c-14 -15 -19 -36 -19 -75 0 -50 3 -56 41 -91 22 -21 43
-44 45 -52 6 -17 39 -8 39 10 0 6 -7 9 -15 5 -8 -3 -15 -2 -15 3 0 4 -18 26
-40 49 -29 29 -40 49 -40 71 0 47 17 81 40 81 21 0 24 -10 21 -71 -2 -22 4
-40 14 -49 19 -16 32 -6 16 14 -7 9 -9 29 -5 55 7 47 -6 71 -41 71 -12 0 -30
-9 -41 -21z"/>
<path d="M2167 1343 c-3 -5 -7 -28 -8 -52 -6 -64 13 -71 86 -36 32 16 53 31
47 33 -6 2 -29 -6 -51 -17 -64 -33 -73 -30 -65 29 6 46 2 62 -9 43z"/>
</g>
</svg>
