<?xml version="1.0" standalone="no"?>
<!DOCTYPE svg PUBLIC "-//W3C//DTD SVG 20010904//EN"
 "http://www.w3.org/TR/2001/REC-SVG-20010904/DTD/svg10.dtd">
<svg version="1.0" xmlns="http://www.w3.org/2000/svg"
 width="600.000000pt" height="600.000000pt" viewBox="0 0 600.000000 600.000000"
 preserveAspectRatio="xMidYMid meet">
<metadata>
Created by potrace 1.10, written by Peter Selinger 2001-2011
</metadata>
<g transform="translate(0.000000,600.000000) scale(0.100000,-0.100000)"
fill="#000000" stroke="none">
<path d="M0 3000 l0 -3000 3000 0 3000 0 0 3000 0 3000 -3000 0 -3000 0 0
-3000z m2767 2538 l212 -211 212 211 c117 117 217 212 223 212 17 0 236 -223
236 -240 0 -8 -95 -110 -211 -226 l-210 -210 225 -226 c124 -125 226 -232 226
-240 0 -18 -221 -238 -240 -238 -8 0 -116 101 -240 225 l-225 225 -225 -225
c-124 -124 -233 -225 -242 -225 -21 0 -238 214 -238 234 0 7 101 115 225 238
124 124 225 228 225 230 0 2 -94 99 -210 215 -115 116 -210 218 -210 226 0 23
211 234 235 236 13 1 89 -68 232 -211z m-706 -1423 c4 -38 8 -335 10 -660 2
-544 13 -832 34 -865 3 -5 10 -31 15 -58 35 -196 174 -300 490 -366 160 -33
500 -29 685 9 181 37 313 97 393 178 49 50 112 158 112 192 0 9 7 44 15 78 43
183 50 286 50 752 0 379 -3 475 -19 606 -11 86 -17 163 -14 171 7 18 75 25
326 35 119 4 176 3 180 -4 4 -6 4 -71 1 -145 -26 -535 -31 -724 -26 -1066 5
-400 19 -671 43 -867 8 -66 14 -143 14 -170 0 -49 -1 -50 -37 -63 -21 -7 -54
-17 -73 -22 -19 -4 -48 -13 -65 -18 -29 -10 -64 -20 -190 -56 -33 -10 -75 -22
-92 -27 -18 -6 -37 -7 -43 -4 -6 4 -10 100 -10 259 0 139 -3 256 -7 259 -3 4
-45 -31 -92 -78 -119 -117 -157 -150 -224 -196 -93 -64 -212 -120 -327 -152
-30 -9 -79 -23 -109 -31 -29 -9 -65 -16 -80 -16 -14 0 -58 -7 -96 -15 -97 -20
-369 -20 -472 1 -334 67 -502 147 -656 313 -59 64 -127 170 -127 199 0 9 -8
37 -16 62 -14 38 -18 125 -25 550 -4 278 -13 636 -20 795 -7 160 -13 331 -13
380 l-1 90 193 6 c105 3 195 9 199 13 4 4 21 6 38 4 30 -3 30 -4 36 -73z m699
-320 c113 -113 212 -205 220 -205 8 0 103 88 210 196 107 107 203 200 214 206
16 9 35 -6 132 -103 63 -63 114 -121 114 -129 0 -8 -92 -107 -205 -220 -113
-113 -205 -209 -205 -215 0 -6 99 -109 220 -230 121 -121 220 -227 220 -235 0
-19 -220 -240 -240 -240 -8 0 -114 99 -235 220 -121 121 -224 220 -230 220 -6
0 -109 -99 -230 -220 -124 -124 -228 -220 -238 -220 -18 0 -237 217 -237 235
0 6 97 107 216 225 118 118 220 223 225 233 9 15 -22 50 -200 228 -116 116
-211 215 -211 222 0 17 222 237 240 237 8 0 107 -92 220 -205z m-5 -2335 c115
-115 214 -210 220 -210 6 0 102 92 215 205 113 113 212 205 220 205 19 0 240
-220 240 -239 0 -8 -92 -106 -205 -218 -113 -111 -205 -209 -205 -216 0 -7 99
-111 220 -232 121 -121 220 -225 220 -232 0 -15 -212 -228 -237 -237 -14 -6
-66 42 -241 219 l-223 226 -32 -28 c-18 -15 -121 -117 -229 -226 -119 -118
-205 -196 -215 -196 -10 1 -70 55 -133 120 l-114 119 234 235 234 234 -212
213 c-117 117 -212 219 -212 228 0 16 219 240 235 240 6 0 105 -94 220 -210z"/>
</g>
</svg>
